<?xml version="1.0" encoding="utf-8" standalone="no"?>
<!DOCTYPE svg PUBLIC "-//W3C//DTD SVG 1.1//EN"
  "http://www.w3.org/Graphics/SVG/1.1/DTD/svg11.dtd">
<!-- Created with matplotlib (http://matplotlib.org/) -->
<svg height="432pt" version="1.1" viewBox="0 0 576 432" width="576pt" xmlns="http://www.w3.org/2000/svg" xmlns:xlink="http://www.w3.org/1999/xlink">
 <defs>
  <style type="text/css">
*{stroke-linecap:butt;stroke-linejoin:round;stroke-miterlimit:100000;}
  </style>
 </defs>
 <g id="figure_1">
  <g id="patch_1">
   <path d="M 0 432 
L 576 432 
L 576 0 
L 0 0 
z
" style="fill:#ffffff;"/>
  </g>
  <g id="axes_1">
   <g id="patch_2">
    <path d="M 72 388.8 
L 518.4 388.8 
L 518.4 43.2 
L 72 43.2 
z
" style="fill:#ffffff;"/>
   </g>
   <g id="line2d_1">
    <path clip-path="url(#pd2db95ed4f)" d="M 82.628571 292.163328 
L 125.142857 260.468928 
L 167.657143 276.244416 
L 210.171429 264.377376 
L 295.2 258.539904 
L 507.771429 225.919584 
" style="fill:none;stroke:#000000;stroke-linecap:round;stroke-width:1.5;"/>
    <defs>
     <path d="M 0 -3 
L -0.673542 -0.927051 
L -2.85317 -0.927051 
L -1.089814 0.354102 
L -1.763356 2.427051 
L -0 1.145898 
L 1.763356 2.427051 
L 1.089814 0.354102 
L 2.85317 -0.927051 
L 0.673542 -0.927051 
z
" id="m8afc1c74bd" style="stroke:#000000;stroke-linejoin:bevel;stroke-width:0.5;"/>
    </defs>
    <g clip-path="url(#pd2db95ed4f)">
     <use style="stroke:#000000;stroke-linejoin:bevel;stroke-width:0.5;" x="82.6285714286" xlink:href="#m8afc1c74bd" y="292.163328"/>
     <use style="stroke:#000000;stroke-linejoin:bevel;stroke-width:0.5;" x="125.142857143" xlink:href="#m8afc1c74bd" y="260.468928"/>
     <use style="stroke:#000000;stroke-linejoin:bevel;stroke-width:0.5;" x="167.657142857" xlink:href="#m8afc1c74bd" y="276.244416"/>
     <use style="stroke:#000000;stroke-linejoin:bevel;stroke-width:0.5;" x="210.171428571" xlink:href="#m8afc1c74bd" y="264.377376"/>
     <use style="stroke:#000000;stroke-linejoin:bevel;stroke-width:0.5;" x="295.2" xlink:href="#m8afc1c74bd" y="258.539904"/>
     <use style="stroke:#000000;stroke-linejoin:bevel;stroke-width:0.5;" x="507.771428571" xlink:href="#m8afc1c74bd" y="225.919584"/>
    </g>
   </g>
   <g id="line2d_2">
    <path clip-path="url(#pd2db95ed4f)" d="M 82.628571 292.163328 
L 125.142857 309.252672 
L 167.657143 298.335168 
L 210.171429 292.651488 
L 295.2 254.844288 
L 507.771429 171.403488 
" style="fill:none;stroke:#000000;stroke-linecap:round;stroke-width:1.5;"/>
    <defs>
     <path d="M 0 -3 
L -3 3 
L 3 3 
z
" id="m4d1cf0bcd5" style="stroke:#000000;stroke-linejoin:miter;stroke-width:0.5;"/>
    </defs>
    <g clip-path="url(#pd2db95ed4f)">
     <use style="stroke:#000000;stroke-linejoin:miter;stroke-width:0.5;" x="82.6285714286" xlink:href="#m4d1cf0bcd5" y="292.163328"/>
     <use style="stroke:#000000;stroke-linejoin:miter;stroke-width:0.5;" x="125.142857143" xlink:href="#m4d1cf0bcd5" y="309.252672"/>
     <use style="stroke:#000000;stroke-linejoin:miter;stroke-width:0.5;" x="167.657142857" xlink:href="#m4d1cf0bcd5" y="298.335168"/>
     <use style="stroke:#000000;stroke-linejoin:miter;stroke-width:0.5;" x="210.171428571" xlink:href="#m4d1cf0bcd5" y="292.651488"/>
     <use style="stroke:#000000;stroke-linejoin:miter;stroke-width:0.5;" x="295.2" xlink:href="#m4d1cf0bcd5" y="254.844288"/>
     <use style="stroke:#000000;stroke-linejoin:miter;stroke-width:0.5;" x="507.771428571" xlink:href="#m4d1cf0bcd5" y="171.403488"/>
    </g>
   </g>
   <g id="line2d_3">
    <path clip-path="url(#pd2db95ed4f)" d="M 82.628571 292.163328 
L 125.142857 334.666368 
L 167.657143 316.803168 
L 210.171429 292.061952 
L 295.2 242.897472 
L 507.771429 82.814688 
" style="fill:none;stroke:#000000;stroke-linecap:round;stroke-width:1.5;"/>
    <defs>
     <path d="M 0 3 
C 0.795609 3 1.55874 2.683901 2.12132 2.12132 
C 2.683901 1.55874 3 0.795609 3 0 
C 3 -0.795609 2.683901 -1.55874 2.12132 -2.12132 
C 1.55874 -2.683901 0.795609 -3 0 -3 
C -0.795609 -3 -1.55874 -2.683901 -2.12132 -2.12132 
C -2.683901 -1.55874 -3 -0.795609 -3 0 
C -3 0.795609 -2.683901 1.55874 -2.12132 2.12132 
C -1.55874 2.683901 -0.795609 3 0 3 
z
" id="ma3a454029f" style="stroke:#000000;stroke-width:0.5;"/>
    </defs>
    <g clip-path="url(#pd2db95ed4f)">
     <use style="stroke:#000000;stroke-width:0.5;" x="82.6285714286" xlink:href="#ma3a454029f" y="292.163328"/>
     <use style="stroke:#000000;stroke-width:0.5;" x="125.142857143" xlink:href="#ma3a454029f" y="334.666368"/>
     <use style="stroke:#000000;stroke-width:0.5;" x="167.657142857" xlink:href="#ma3a454029f" y="316.803168"/>
     <use style="stroke:#000000;stroke-width:0.5;" x="210.171428571" xlink:href="#ma3a454029f" y="292.061952"/>
     <use style="stroke:#000000;stroke-width:0.5;" x="295.2" xlink:href="#ma3a454029f" y="242.897472"/>
     <use style="stroke:#000000;stroke-width:0.5;" x="507.771428571" xlink:href="#ma3a454029f" y="82.814688"/>
    </g>
   </g>
   <g id="line2d_4">
    <path clip-path="url(#pd2db95ed4f)" d="M 82.628571 292.163328 
L 125.142857 340.610112 
L 167.657143 326.437344 
L 210.171429 301.990464 
L 295.2 247.555008 
L 507.771429 71.668512 
" style="fill:none;stroke:#000000;stroke-linecap:round;stroke-width:1.5;"/>
    <defs>
     <path d="M -3 3 
L 3 3 
L 3 -3 
L -3 -3 
z
" id="m67408ef7e4" style="stroke:#000000;stroke-linejoin:miter;stroke-width:0.5;"/>
    </defs>
    <g clip-path="url(#pd2db95ed4f)">
     <use style="stroke:#000000;stroke-linejoin:miter;stroke-width:0.5;" x="82.6285714286" xlink:href="#m67408ef7e4" y="292.163328"/>
     <use style="stroke:#000000;stroke-linejoin:miter;stroke-width:0.5;" x="125.142857143" xlink:href="#m67408ef7e4" y="340.610112"/>
     <use style="stroke:#000000;stroke-linejoin:miter;stroke-width:0.5;" x="167.657142857" xlink:href="#m67408ef7e4" y="326.437344"/>
     <use style="stroke:#000000;stroke-linejoin:miter;stroke-width:0.5;" x="210.171428571" xlink:href="#m67408ef7e4" y="301.990464"/>
     <use style="stroke:#000000;stroke-linejoin:miter;stroke-width:0.5;" x="295.2" xlink:href="#m67408ef7e4" y="247.555008"/>
     <use style="stroke:#000000;stroke-linejoin:miter;stroke-width:0.5;" x="507.771428571" xlink:href="#m67408ef7e4" y="71.668512"/>
    </g>
   </g>
   <g id="line2d_5">
    <path clip-path="url(#pd2db95ed4f)" d="M 82.628571 292.163328 
L 125.142857 340.615008 
L 167.657143 323.007264 
L 210.171429 299.64816 
L 295.2 244.790784 
L 507.771429 78.535296 
" style="fill:none;stroke:#000000;stroke-linecap:round;stroke-width:1.5;"/>
    <defs>
     <path d="M -0 3 
L 3 -3 
L -3 -3 
z
" id="m24c7a93e44" style="stroke:#000000;stroke-linejoin:miter;stroke-width:0.5;"/>
    </defs>
    <g clip-path="url(#pd2db95ed4f)">
     <use style="stroke:#000000;stroke-linejoin:miter;stroke-width:0.5;" x="82.6285714286" xlink:href="#m24c7a93e44" y="292.163328"/>
     <use style="stroke:#000000;stroke-linejoin:miter;stroke-width:0.5;" x="125.142857143" xlink:href="#m24c7a93e44" y="340.615008"/>
     <use style="stroke:#000000;stroke-linejoin:miter;stroke-width:0.5;" x="167.657142857" xlink:href="#m24c7a93e44" y="323.007264"/>
     <use style="stroke:#000000;stroke-linejoin:miter;stroke-width:0.5;" x="210.171428571" xlink:href="#m24c7a93e44" y="299.64816"/>
     <use style="stroke:#000000;stroke-linejoin:miter;stroke-width:0.5;" x="295.2" xlink:href="#m24c7a93e44" y="244.790784"/>
     <use style="stroke:#000000;stroke-linejoin:miter;stroke-width:0.5;" x="507.771428571" xlink:href="#m24c7a93e44" y="78.535296"/>
    </g>
   </g>
   <g id="line2d_6">
    <path clip-path="url(#pd2db95ed4f)" d="M 82.628571 292.163328 
L 125.142857 292.163328 
L 167.657143 292.163328 
L 210.171429 292.163328 
L 295.2 292.163328 
L 507.771429 292.163328 
" style="fill:none;stroke:#000000;stroke-dasharray:6.000000,6.000000;stroke-dashoffset:0.0;stroke-width:1.5;"/>
   </g>
   <g id="line2d_7">
    <path clip-path="url(#pd2db95ed4f)" d="M 82.628571 253.552032 
L 125.142857 253.552032 
L 167.657143 253.552032 
L 210.171429 253.552032 
L 295.2 253.552032 
L 507.771429 253.552032 
" style="fill:none;stroke:#000000;stroke-dasharray:1.000000,3.000000;stroke-dashoffset:0.0;stroke-width:1.5;"/>
   </g>
   <g id="patch_3">
    <path d="M 72 43.2 
L 518.4 43.2 
" style="fill:none;stroke:#000000;stroke-linecap:square;stroke-linejoin:miter;"/>
   </g>
   <g id="patch_4">
    <path d="M 518.4 388.8 
L 518.4 43.2 
" style="fill:none;stroke:#000000;stroke-linecap:square;stroke-linejoin:miter;"/>
   </g>
   <g id="patch_5">
    <path d="M 72 388.8 
L 518.4 388.8 
" style="fill:none;stroke:#000000;stroke-linecap:square;stroke-linejoin:miter;"/>
   </g>
   <g id="patch_6">
    <path d="M 72 388.8 
L 72 43.2 
" style="fill:none;stroke:#000000;stroke-linecap:square;stroke-linejoin:miter;"/>
   </g>
   <g id="matplotlib.axis_1">
    <g id="xtick_1">
     <g id="line2d_8">
      <defs>
       <path d="M 0 0 
L 0 -4 
" id="mca13b3cfd9" style="stroke:#000000;stroke-width:0.5;"/>
      </defs>
      <g>
       <use style="stroke:#000000;stroke-width:0.5;" x="82.6285714286" xlink:href="#mca13b3cfd9" y="388.8"/>
      </g>
     </g>
     <g id="line2d_9">
      <defs>
       <path d="M 0 0 
L 0 4 
" id="mbc52c77099" style="stroke:#000000;stroke-width:0.5;"/>
      </defs>
      <g>
       <use style="stroke:#000000;stroke-width:0.5;" x="82.6285714286" xlink:href="#mbc52c77099" y="43.2"/>
      </g>
     </g>
     <g id="text_1">
      <!-- 0 -->
      <defs>
       <path d="M 31.78125 66.40625 
Q 24.171875 66.40625 20.328125 58.90625 
Q 16.5 51.421875 16.5 36.375 
Q 16.5 21.390625 20.328125 13.890625 
Q 24.171875 6.390625 31.78125 6.390625 
Q 39.453125 6.390625 43.28125 13.890625 
Q 47.125 21.390625 47.125 36.375 
Q 47.125 51.421875 43.28125 58.90625 
Q 39.453125 66.40625 31.78125 66.40625 
M 31.78125 74.21875 
Q 44.046875 74.21875 50.515625 64.515625 
Q 56.984375 54.828125 56.984375 36.375 
Q 56.984375 17.96875 50.515625 8.265625 
Q 44.046875 -1.421875 31.78125 -1.421875 
Q 19.53125 -1.421875 13.0625 8.265625 
Q 6.59375 17.96875 6.59375 36.375 
Q 6.59375 54.828125 13.0625 64.515625 
Q 19.53125 74.21875 31.78125 74.21875 
" id="BitstreamVeraSans-Roman-30"/>
      </defs>
      <g transform="translate(78.1748214286 403.4378125)scale(0.14 -0.14)">
       <use xlink:href="#BitstreamVeraSans-Roman-30"/>
      </g>
     </g>
    </g>
    <g id="xtick_2">
     <g id="line2d_10">
      <g>
       <use style="stroke:#000000;stroke-width:0.5;" x="167.657142857" xlink:href="#mca13b3cfd9" y="388.8"/>
      </g>
     </g>
     <g id="line2d_11">
      <g>
       <use style="stroke:#000000;stroke-width:0.5;" x="167.657142857" xlink:href="#mbc52c77099" y="43.2"/>
      </g>
     </g>
     <g id="text_2">
      <!-- 2 -->
      <defs>
       <path d="M 19.1875 8.296875 
L 53.609375 8.296875 
L 53.609375 0 
L 7.328125 0 
L 7.328125 8.296875 
Q 12.9375 14.109375 22.625 23.890625 
Q 32.328125 33.6875 34.8125 36.53125 
Q 39.546875 41.84375 41.421875 45.53125 
Q 43.3125 49.21875 43.3125 52.78125 
Q 43.3125 58.59375 39.234375 62.25 
Q 35.15625 65.921875 28.609375 65.921875 
Q 23.96875 65.921875 18.8125 64.3125 
Q 13.671875 62.703125 7.8125 59.421875 
L 7.8125 69.390625 
Q 13.765625 71.78125 18.9375 73 
Q 24.125 74.21875 28.421875 74.21875 
Q 39.75 74.21875 46.484375 68.546875 
Q 53.21875 62.890625 53.21875 53.421875 
Q 53.21875 48.921875 51.53125 44.890625 
Q 49.859375 40.875 45.40625 35.40625 
Q 44.1875 33.984375 37.640625 27.21875 
Q 31.109375 20.453125 19.1875 8.296875 
" id="BitstreamVeraSans-Roman-32"/>
      </defs>
      <g transform="translate(163.203392857 403.4378125)scale(0.14 -0.14)">
       <use xlink:href="#BitstreamVeraSans-Roman-32"/>
      </g>
     </g>
    </g>
    <g id="xtick_3">
     <g id="line2d_12">
      <g>
       <use style="stroke:#000000;stroke-width:0.5;" x="252.685714286" xlink:href="#mca13b3cfd9" y="388.8"/>
      </g>
     </g>
     <g id="line2d_13">
      <g>
       <use style="stroke:#000000;stroke-width:0.5;" x="252.685714286" xlink:href="#mbc52c77099" y="43.2"/>
      </g>
     </g>
     <g id="text_3">
      <!-- 4 -->
      <defs>
       <path d="M 37.796875 64.3125 
L 12.890625 25.390625 
L 37.796875 25.390625 
z
M 35.203125 72.90625 
L 47.609375 72.90625 
L 47.609375 25.390625 
L 58.015625 25.390625 
L 58.015625 17.1875 
L 47.609375 17.1875 
L 47.609375 0 
L 37.796875 0 
L 37.796875 17.1875 
L 4.890625 17.1875 
L 4.890625 26.703125 
z
" id="BitstreamVeraSans-Roman-34"/>
      </defs>
      <g transform="translate(248.231964286 403.4378125)scale(0.14 -0.14)">
       <use xlink:href="#BitstreamVeraSans-Roman-34"/>
      </g>
     </g>
    </g>
    <g id="xtick_4">
     <g id="line2d_14">
      <g>
       <use style="stroke:#000000;stroke-width:0.5;" x="337.714285714" xlink:href="#mca13b3cfd9" y="388.8"/>
      </g>
     </g>
     <g id="line2d_15">
      <g>
       <use style="stroke:#000000;stroke-width:0.5;" x="337.714285714" xlink:href="#mbc52c77099" y="43.2"/>
      </g>
     </g>
     <g id="text_4">
      <!-- 6 -->
      <defs>
       <path d="M 33.015625 40.375 
Q 26.375 40.375 22.484375 35.828125 
Q 18.609375 31.296875 18.609375 23.390625 
Q 18.609375 15.53125 22.484375 10.953125 
Q 26.375 6.390625 33.015625 6.390625 
Q 39.65625 6.390625 43.53125 10.953125 
Q 47.40625 15.53125 47.40625 23.390625 
Q 47.40625 31.296875 43.53125 35.828125 
Q 39.65625 40.375 33.015625 40.375 
M 52.59375 71.296875 
L 52.59375 62.3125 
Q 48.875 64.0625 45.09375 64.984375 
Q 41.3125 65.921875 37.59375 65.921875 
Q 27.828125 65.921875 22.671875 59.328125 
Q 17.53125 52.734375 16.796875 39.40625 
Q 19.671875 43.65625 24.015625 45.921875 
Q 28.375 48.1875 33.59375 48.1875 
Q 44.578125 48.1875 50.953125 41.515625 
Q 57.328125 34.859375 57.328125 23.390625 
Q 57.328125 12.15625 50.6875 5.359375 
Q 44.046875 -1.421875 33.015625 -1.421875 
Q 20.359375 -1.421875 13.671875 8.265625 
Q 6.984375 17.96875 6.984375 36.375 
Q 6.984375 53.65625 15.1875 63.9375 
Q 23.390625 74.21875 37.203125 74.21875 
Q 40.921875 74.21875 44.703125 73.484375 
Q 48.484375 72.75 52.59375 71.296875 
" id="BitstreamVeraSans-Roman-36"/>
      </defs>
      <g transform="translate(333.260535714 403.4378125)scale(0.14 -0.14)">
       <use xlink:href="#BitstreamVeraSans-Roman-36"/>
      </g>
     </g>
    </g>
    <g id="xtick_5">
     <g id="line2d_16">
      <g>
       <use style="stroke:#000000;stroke-width:0.5;" x="422.742857143" xlink:href="#mca13b3cfd9" y="388.8"/>
      </g>
     </g>
     <g id="line2d_17">
      <g>
       <use style="stroke:#000000;stroke-width:0.5;" x="422.742857143" xlink:href="#mbc52c77099" y="43.2"/>
      </g>
     </g>
     <g id="text_5">
      <!-- 8 -->
      <defs>
       <path d="M 31.78125 34.625 
Q 24.75 34.625 20.71875 30.859375 
Q 16.703125 27.09375 16.703125 20.515625 
Q 16.703125 13.921875 20.71875 10.15625 
Q 24.75 6.390625 31.78125 6.390625 
Q 38.8125 6.390625 42.859375 10.171875 
Q 46.921875 13.96875 46.921875 20.515625 
Q 46.921875 27.09375 42.890625 30.859375 
Q 38.875 34.625 31.78125 34.625 
M 21.921875 38.8125 
Q 15.578125 40.375 12.03125 44.71875 
Q 8.5 49.078125 8.5 55.328125 
Q 8.5 64.0625 14.71875 69.140625 
Q 20.953125 74.21875 31.78125 74.21875 
Q 42.671875 74.21875 48.875 69.140625 
Q 55.078125 64.0625 55.078125 55.328125 
Q 55.078125 49.078125 51.53125 44.71875 
Q 48 40.375 41.703125 38.8125 
Q 48.828125 37.15625 52.796875 32.3125 
Q 56.78125 27.484375 56.78125 20.515625 
Q 56.78125 9.90625 50.3125 4.234375 
Q 43.84375 -1.421875 31.78125 -1.421875 
Q 19.734375 -1.421875 13.25 4.234375 
Q 6.78125 9.90625 6.78125 20.515625 
Q 6.78125 27.484375 10.78125 32.3125 
Q 14.796875 37.15625 21.921875 38.8125 
M 18.3125 54.390625 
Q 18.3125 48.734375 21.84375 45.5625 
Q 25.390625 42.390625 31.78125 42.390625 
Q 38.140625 42.390625 41.71875 45.5625 
Q 45.3125 48.734375 45.3125 54.390625 
Q 45.3125 60.0625 41.71875 63.234375 
Q 38.140625 66.40625 31.78125 66.40625 
Q 25.390625 66.40625 21.84375 63.234375 
Q 18.3125 60.0625 18.3125 54.390625 
" id="BitstreamVeraSans-Roman-38"/>
      </defs>
      <g transform="translate(418.289107143 403.4378125)scale(0.14 -0.14)">
       <use xlink:href="#BitstreamVeraSans-Roman-38"/>
      </g>
     </g>
    </g>
    <g id="xtick_6">
     <g id="line2d_18">
      <g>
       <use style="stroke:#000000;stroke-width:0.5;" x="507.771428571" xlink:href="#mca13b3cfd9" y="388.8"/>
      </g>
     </g>
     <g id="line2d_19">
      <g>
       <use style="stroke:#000000;stroke-width:0.5;" x="507.771428571" xlink:href="#mbc52c77099" y="43.2"/>
      </g>
     </g>
     <g id="text_6">
      <!-- 10 -->
      <defs>
       <path d="M 12.40625 8.296875 
L 28.515625 8.296875 
L 28.515625 63.921875 
L 10.984375 60.40625 
L 10.984375 69.390625 
L 28.421875 72.90625 
L 38.28125 72.90625 
L 38.28125 8.296875 
L 54.390625 8.296875 
L 54.390625 0 
L 12.40625 0 
z
" id="BitstreamVeraSans-Roman-31"/>
      </defs>
      <g transform="translate(498.863928571 403.4378125)scale(0.14 -0.14)">
       <use xlink:href="#BitstreamVeraSans-Roman-31"/>
       <use x="63.623046875" xlink:href="#BitstreamVeraSans-Roman-30"/>
      </g>
     </g>
    </g>
    <g id="text_7">
     <!-- Number of cuts -->
     <defs>
      <path id="BitstreamVeraSans-Roman-20"/>
      <path d="M 9.8125 72.90625 
L 23.09375 72.90625 
L 55.421875 11.921875 
L 55.421875 72.90625 
L 64.984375 72.90625 
L 64.984375 0 
L 51.703125 0 
L 19.390625 60.984375 
L 19.390625 0 
L 9.8125 0 
z
" id="BitstreamVeraSans-Roman-4e"/>
      <path d="M 37.109375 75.984375 
L 37.109375 68.5 
L 28.515625 68.5 
Q 23.6875 68.5 21.796875 66.546875 
Q 19.921875 64.59375 19.921875 59.515625 
L 19.921875 54.6875 
L 34.71875 54.6875 
L 34.71875 47.703125 
L 19.921875 47.703125 
L 19.921875 0 
L 10.890625 0 
L 10.890625 47.703125 
L 2.296875 47.703125 
L 2.296875 54.6875 
L 10.890625 54.6875 
L 10.890625 58.5 
Q 10.890625 67.625 15.140625 71.796875 
Q 19.390625 75.984375 28.609375 75.984375 
z
" id="BitstreamVeraSans-Roman-66"/>
      <path d="M 52 44.1875 
Q 55.375 50.25 60.0625 53.125 
Q 64.75 56 71.09375 56 
Q 79.640625 56 84.28125 50.015625 
Q 88.921875 44.046875 88.921875 33.015625 
L 88.921875 0 
L 79.890625 0 
L 79.890625 32.71875 
Q 79.890625 40.578125 77.09375 44.375 
Q 74.3125 48.1875 68.609375 48.1875 
Q 61.625 48.1875 57.5625 43.546875 
Q 53.515625 38.921875 53.515625 30.90625 
L 53.515625 0 
L 44.484375 0 
L 44.484375 32.71875 
Q 44.484375 40.625 41.703125 44.40625 
Q 38.921875 48.1875 33.109375 48.1875 
Q 26.21875 48.1875 22.15625 43.53125 
Q 18.109375 38.875 18.109375 30.90625 
L 18.109375 0 
L 9.078125 0 
L 9.078125 54.6875 
L 18.109375 54.6875 
L 18.109375 46.1875 
Q 21.1875 51.21875 25.484375 53.609375 
Q 29.78125 56 35.6875 56 
Q 41.65625 56 45.828125 52.96875 
Q 50 49.953125 52 44.1875 
" id="BitstreamVeraSans-Roman-6d"/>
      <path d="M 30.609375 48.390625 
Q 23.390625 48.390625 19.1875 42.75 
Q 14.984375 37.109375 14.984375 27.296875 
Q 14.984375 17.484375 19.15625 11.84375 
Q 23.34375 6.203125 30.609375 6.203125 
Q 37.796875 6.203125 41.984375 11.859375 
Q 46.1875 17.53125 46.1875 27.296875 
Q 46.1875 37.015625 41.984375 42.703125 
Q 37.796875 48.390625 30.609375 48.390625 
M 30.609375 56 
Q 42.328125 56 49.015625 48.375 
Q 55.71875 40.765625 55.71875 27.296875 
Q 55.71875 13.875 49.015625 6.21875 
Q 42.328125 -1.421875 30.609375 -1.421875 
Q 18.84375 -1.421875 12.171875 6.21875 
Q 5.515625 13.875 5.515625 27.296875 
Q 5.515625 40.765625 12.171875 48.375 
Q 18.84375 56 30.609375 56 
" id="BitstreamVeraSans-Roman-6f"/>
      <path d="M 56.203125 29.59375 
L 56.203125 25.203125 
L 14.890625 25.203125 
Q 15.484375 15.921875 20.484375 11.0625 
Q 25.484375 6.203125 34.421875 6.203125 
Q 39.59375 6.203125 44.453125 7.46875 
Q 49.3125 8.734375 54.109375 11.28125 
L 54.109375 2.78125 
Q 49.265625 0.734375 44.1875 -0.34375 
Q 39.109375 -1.421875 33.890625 -1.421875 
Q 20.796875 -1.421875 13.15625 6.1875 
Q 5.515625 13.8125 5.515625 26.8125 
Q 5.515625 40.234375 12.765625 48.109375 
Q 20.015625 56 32.328125 56 
Q 43.359375 56 49.78125 48.890625 
Q 56.203125 41.796875 56.203125 29.59375 
M 47.21875 32.234375 
Q 47.125 39.59375 43.09375 43.984375 
Q 39.0625 48.390625 32.421875 48.390625 
Q 24.90625 48.390625 20.390625 44.140625 
Q 15.875 39.890625 15.1875 32.171875 
z
" id="BitstreamVeraSans-Roman-65"/>
      <path d="M 18.3125 70.21875 
L 18.3125 54.6875 
L 36.8125 54.6875 
L 36.8125 47.703125 
L 18.3125 47.703125 
L 18.3125 18.015625 
Q 18.3125 11.328125 20.140625 9.421875 
Q 21.96875 7.515625 27.59375 7.515625 
L 36.8125 7.515625 
L 36.8125 0 
L 27.59375 0 
Q 17.1875 0 13.234375 3.875 
Q 9.28125 7.765625 9.28125 18.015625 
L 9.28125 47.703125 
L 2.6875 47.703125 
L 2.6875 54.6875 
L 9.28125 54.6875 
L 9.28125 70.21875 
z
" id="BitstreamVeraSans-Roman-74"/>
      <path d="M 8.5 21.578125 
L 8.5 54.6875 
L 17.484375 54.6875 
L 17.484375 21.921875 
Q 17.484375 14.15625 20.5 10.265625 
Q 23.53125 6.390625 29.59375 6.390625 
Q 36.859375 6.390625 41.078125 11.03125 
Q 45.3125 15.671875 45.3125 23.6875 
L 45.3125 54.6875 
L 54.296875 54.6875 
L 54.296875 0 
L 45.3125 0 
L 45.3125 8.40625 
Q 42.046875 3.421875 37.71875 1 
Q 33.40625 -1.421875 27.6875 -1.421875 
Q 18.265625 -1.421875 13.375 4.4375 
Q 8.5 10.296875 8.5 21.578125 
" id="BitstreamVeraSans-Roman-75"/>
      <path d="M 41.109375 46.296875 
Q 39.59375 47.171875 37.8125 47.578125 
Q 36.03125 48 33.890625 48 
Q 26.265625 48 22.1875 43.046875 
Q 18.109375 38.09375 18.109375 28.8125 
L 18.109375 0 
L 9.078125 0 
L 9.078125 54.6875 
L 18.109375 54.6875 
L 18.109375 46.1875 
Q 20.953125 51.171875 25.484375 53.578125 
Q 30.03125 56 36.53125 56 
Q 37.453125 56 38.578125 55.875 
Q 39.703125 55.765625 41.0625 55.515625 
z
" id="BitstreamVeraSans-Roman-72"/>
      <path d="M 44.28125 53.078125 
L 44.28125 44.578125 
Q 40.484375 46.53125 36.375 47.5 
Q 32.28125 48.484375 27.875 48.484375 
Q 21.1875 48.484375 17.84375 46.4375 
Q 14.5 44.390625 14.5 40.28125 
Q 14.5 37.15625 16.890625 35.375 
Q 19.28125 33.59375 26.515625 31.984375 
L 29.59375 31.296875 
Q 39.15625 29.25 43.1875 25.515625 
Q 47.21875 21.78125 47.21875 15.09375 
Q 47.21875 7.46875 41.1875 3.015625 
Q 35.15625 -1.421875 24.609375 -1.421875 
Q 20.21875 -1.421875 15.453125 -0.5625 
Q 10.6875 0.296875 5.421875 2 
L 5.421875 11.28125 
Q 10.40625 8.6875 15.234375 7.390625 
Q 20.0625 6.109375 24.8125 6.109375 
Q 31.15625 6.109375 34.5625 8.28125 
Q 37.984375 10.453125 37.984375 14.40625 
Q 37.984375 18.0625 35.515625 20.015625 
Q 33.0625 21.96875 24.703125 23.78125 
L 21.578125 24.515625 
Q 13.234375 26.265625 9.515625 29.90625 
Q 5.8125 33.546875 5.8125 39.890625 
Q 5.8125 47.609375 11.28125 51.796875 
Q 16.75 56 26.8125 56 
Q 31.78125 56 36.171875 55.265625 
Q 40.578125 54.546875 44.28125 53.078125 
" id="BitstreamVeraSans-Roman-73"/>
      <path d="M 48.78125 52.59375 
L 48.78125 44.1875 
Q 44.96875 46.296875 41.140625 47.34375 
Q 37.3125 48.390625 33.40625 48.390625 
Q 24.65625 48.390625 19.8125 42.84375 
Q 14.984375 37.3125 14.984375 27.296875 
Q 14.984375 17.28125 19.8125 11.734375 
Q 24.65625 6.203125 33.40625 6.203125 
Q 37.3125 6.203125 41.140625 7.25 
Q 44.96875 8.296875 48.78125 10.40625 
L 48.78125 2.09375 
Q 45.015625 0.34375 40.984375 -0.53125 
Q 36.96875 -1.421875 32.421875 -1.421875 
Q 20.0625 -1.421875 12.78125 6.34375 
Q 5.515625 14.109375 5.515625 27.296875 
Q 5.515625 40.671875 12.859375 48.328125 
Q 20.21875 56 33.015625 56 
Q 37.15625 56 41.109375 55.140625 
Q 45.0625 54.296875 48.78125 52.59375 
" id="BitstreamVeraSans-Roman-63"/>
      <path d="M 48.6875 27.296875 
Q 48.6875 37.203125 44.609375 42.84375 
Q 40.53125 48.484375 33.40625 48.484375 
Q 26.265625 48.484375 22.1875 42.84375 
Q 18.109375 37.203125 18.109375 27.296875 
Q 18.109375 17.390625 22.1875 11.75 
Q 26.265625 6.109375 33.40625 6.109375 
Q 40.53125 6.109375 44.609375 11.75 
Q 48.6875 17.390625 48.6875 27.296875 
M 18.109375 46.390625 
Q 20.953125 51.265625 25.265625 53.625 
Q 29.59375 56 35.59375 56 
Q 45.5625 56 51.78125 48.09375 
Q 58.015625 40.1875 58.015625 27.296875 
Q 58.015625 14.40625 51.78125 6.484375 
Q 45.5625 -1.421875 35.59375 -1.421875 
Q 29.59375 -1.421875 25.265625 0.953125 
Q 20.953125 3.328125 18.109375 8.203125 
L 18.109375 0 
L 9.078125 0 
L 9.078125 75.984375 
L 18.109375 75.984375 
z
" id="BitstreamVeraSans-Roman-62"/>
     </defs>
     <g transform="translate(241.20703125 421.9871875)scale(0.14 -0.14)">
      <use xlink:href="#BitstreamVeraSans-Roman-4e"/>
      <use x="74.8046875" xlink:href="#BitstreamVeraSans-Roman-75"/>
      <use x="138.18359375" xlink:href="#BitstreamVeraSans-Roman-6d"/>
      <use x="235.595703125" xlink:href="#BitstreamVeraSans-Roman-62"/>
      <use x="299.072265625" xlink:href="#BitstreamVeraSans-Roman-65"/>
      <use x="360.595703125" xlink:href="#BitstreamVeraSans-Roman-72"/>
      <use x="401.708984375" xlink:href="#BitstreamVeraSans-Roman-20"/>
      <use x="433.49609375" xlink:href="#BitstreamVeraSans-Roman-6f"/>
      <use x="494.677734375" xlink:href="#BitstreamVeraSans-Roman-66"/>
      <use x="529.8828125" xlink:href="#BitstreamVeraSans-Roman-20"/>
      <use x="561.669921875" xlink:href="#BitstreamVeraSans-Roman-63"/>
      <use x="616.650390625" xlink:href="#BitstreamVeraSans-Roman-75"/>
      <use x="680.029296875" xlink:href="#BitstreamVeraSans-Roman-74"/>
      <use x="719.23828125" xlink:href="#BitstreamVeraSans-Roman-73"/>
     </g>
    </g>
   </g>
   <g id="matplotlib.axis_2">
    <g id="ytick_1">
     <g id="line2d_20">
      <defs>
       <path d="M 0 0 
L 4 0 
" id="me50c2ee96a" style="stroke:#000000;stroke-width:0.5;"/>
      </defs>
      <g>
       <use style="stroke:#000000;stroke-width:0.5;" x="72.0" xlink:href="#me50c2ee96a" y="388.8"/>
      </g>
     </g>
     <g id="line2d_21">
      <defs>
       <path d="M 0 0 
L -4 0 
" id="mb80fd66bab" style="stroke:#000000;stroke-width:0.5;"/>
      </defs>
      <g>
       <use style="stroke:#000000;stroke-width:0.5;" x="518.4" xlink:href="#mb80fd66bab" y="388.8"/>
      </g>
     </g>
     <g id="text_8">
      <!-- 0 -->
      <g transform="translate(59.0925 392.663125)scale(0.14 -0.14)">
       <use xlink:href="#BitstreamVeraSans-Roman-30"/>
      </g>
     </g>
    </g>
    <g id="ytick_2">
     <g id="line2d_22">
      <g>
       <use style="stroke:#000000;stroke-width:0.5;" x="72.0" xlink:href="#me50c2ee96a" y="331.2"/>
      </g>
     </g>
     <g id="line2d_23">
      <g>
       <use style="stroke:#000000;stroke-width:0.5;" x="518.4" xlink:href="#mb80fd66bab" y="331.2"/>
      </g>
     </g>
     <g id="text_9">
      <!-- 200 -->
      <g transform="translate(41.2775 335.063125)scale(0.14 -0.14)">
       <use xlink:href="#BitstreamVeraSans-Roman-32"/>
       <use x="63.623046875" xlink:href="#BitstreamVeraSans-Roman-30"/>
       <use x="127.24609375" xlink:href="#BitstreamVeraSans-Roman-30"/>
      </g>
     </g>
    </g>
    <g id="ytick_3">
     <g id="line2d_24">
      <g>
       <use style="stroke:#000000;stroke-width:0.5;" x="72.0" xlink:href="#me50c2ee96a" y="273.6"/>
      </g>
     </g>
     <g id="line2d_25">
      <g>
       <use style="stroke:#000000;stroke-width:0.5;" x="518.4" xlink:href="#mb80fd66bab" y="273.6"/>
      </g>
     </g>
     <g id="text_10">
      <!-- 400 -->
      <g transform="translate(41.2775 277.463125)scale(0.14 -0.14)">
       <use xlink:href="#BitstreamVeraSans-Roman-34"/>
       <use x="63.623046875" xlink:href="#BitstreamVeraSans-Roman-30"/>
       <use x="127.24609375" xlink:href="#BitstreamVeraSans-Roman-30"/>
      </g>
     </g>
    </g>
    <g id="ytick_4">
     <g id="line2d_26">
      <g>
       <use style="stroke:#000000;stroke-width:0.5;" x="72.0" xlink:href="#me50c2ee96a" y="216.0"/>
      </g>
     </g>
     <g id="line2d_27">
      <g>
       <use style="stroke:#000000;stroke-width:0.5;" x="518.4" xlink:href="#mb80fd66bab" y="216.0"/>
      </g>
     </g>
     <g id="text_11">
      <!-- 600 -->
      <g transform="translate(41.2775 219.863125)scale(0.14 -0.14)">
       <use xlink:href="#BitstreamVeraSans-Roman-36"/>
       <use x="63.623046875" xlink:href="#BitstreamVeraSans-Roman-30"/>
       <use x="127.24609375" xlink:href="#BitstreamVeraSans-Roman-30"/>
      </g>
     </g>
    </g>
    <g id="ytick_5">
     <g id="line2d_28">
      <g>
       <use style="stroke:#000000;stroke-width:0.5;" x="72.0" xlink:href="#me50c2ee96a" y="158.4"/>
      </g>
     </g>
     <g id="line2d_29">
      <g>
       <use style="stroke:#000000;stroke-width:0.5;" x="518.4" xlink:href="#mb80fd66bab" y="158.4"/>
      </g>
     </g>
     <g id="text_12">
      <!-- 800 -->
      <g transform="translate(41.2775 162.263125)scale(0.14 -0.14)">
       <use xlink:href="#BitstreamVeraSans-Roman-38"/>
       <use x="63.623046875" xlink:href="#BitstreamVeraSans-Roman-30"/>
       <use x="127.24609375" xlink:href="#BitstreamVeraSans-Roman-30"/>
      </g>
     </g>
    </g>
    <g id="ytick_6">
     <g id="line2d_30">
      <g>
       <use style="stroke:#000000;stroke-width:0.5;" x="72.0" xlink:href="#me50c2ee96a" y="100.8"/>
      </g>
     </g>
     <g id="line2d_31">
      <g>
       <use style="stroke:#000000;stroke-width:0.5;" x="518.4" xlink:href="#mb80fd66bab" y="100.8"/>
      </g>
     </g>
     <g id="text_13">
      <!-- 1000 -->
      <g transform="translate(32.37 104.663125)scale(0.14 -0.14)">
       <use xlink:href="#BitstreamVeraSans-Roman-31"/>
       <use x="63.623046875" xlink:href="#BitstreamVeraSans-Roman-30"/>
       <use x="127.24609375" xlink:href="#BitstreamVeraSans-Roman-30"/>
       <use x="190.869140625" xlink:href="#BitstreamVeraSans-Roman-30"/>
      </g>
     </g>
    </g>
    <g id="ytick_7">
     <g id="line2d_32">
      <g>
       <use style="stroke:#000000;stroke-width:0.5;" x="72.0" xlink:href="#me50c2ee96a" y="43.2"/>
      </g>
     </g>
     <g id="line2d_33">
      <g>
       <use style="stroke:#000000;stroke-width:0.5;" x="518.4" xlink:href="#mb80fd66bab" y="43.2"/>
      </g>
     </g>
     <g id="text_14">
      <!-- 1200 -->
      <g transform="translate(32.37 47.063125)scale(0.14 -0.14)">
       <use xlink:href="#BitstreamVeraSans-Roman-31"/>
       <use x="63.623046875" xlink:href="#BitstreamVeraSans-Roman-32"/>
       <use x="127.24609375" xlink:href="#BitstreamVeraSans-Roman-30"/>
       <use x="190.869140625" xlink:href="#BitstreamVeraSans-Roman-30"/>
      </g>
     </g>
    </g>
    <g id="text_15">
     <!-- Total solving time (s) -->
     <defs>
      <path d="M 54.890625 33.015625 
L 54.890625 0 
L 45.90625 0 
L 45.90625 32.71875 
Q 45.90625 40.484375 42.875 44.328125 
Q 39.84375 48.1875 33.796875 48.1875 
Q 26.515625 48.1875 22.3125 43.546875 
Q 18.109375 38.921875 18.109375 30.90625 
L 18.109375 0 
L 9.078125 0 
L 9.078125 54.6875 
L 18.109375 54.6875 
L 18.109375 46.1875 
Q 21.34375 51.125 25.703125 53.5625 
Q 30.078125 56 35.796875 56 
Q 45.21875 56 50.046875 50.171875 
Q 54.890625 44.34375 54.890625 33.015625 
" id="BitstreamVeraSans-Roman-6e"/>
      <path d="M 31 75.875 
Q 24.46875 64.65625 21.28125 53.65625 
Q 18.109375 42.671875 18.109375 31.390625 
Q 18.109375 20.125 21.3125 9.0625 
Q 24.515625 -2 31 -13.1875 
L 23.1875 -13.1875 
Q 15.875 -1.703125 12.234375 9.375 
Q 8.59375 20.453125 8.59375 31.390625 
Q 8.59375 42.28125 12.203125 53.3125 
Q 15.828125 64.359375 23.1875 75.875 
z
" id="BitstreamVeraSans-Roman-28"/>
      <path d="M 9.421875 75.984375 
L 18.40625 75.984375 
L 18.40625 0 
L 9.421875 0 
z
" id="BitstreamVeraSans-Roman-6c"/>
      <path d="M 8.015625 75.875 
L 15.828125 75.875 
Q 23.140625 64.359375 26.78125 53.3125 
Q 30.421875 42.28125 30.421875 31.390625 
Q 30.421875 20.453125 26.78125 9.375 
Q 23.140625 -1.703125 15.828125 -13.1875 
L 8.015625 -13.1875 
Q 14.5 -2 17.703125 9.0625 
Q 20.90625 20.125 20.90625 31.390625 
Q 20.90625 42.671875 17.703125 53.65625 
Q 14.5 64.65625 8.015625 75.875 
" id="BitstreamVeraSans-Roman-29"/>
      <path d="M 9.421875 54.6875 
L 18.40625 54.6875 
L 18.40625 0 
L 9.421875 0 
z
M 9.421875 75.984375 
L 18.40625 75.984375 
L 18.40625 64.59375 
L 9.421875 64.59375 
z
" id="BitstreamVeraSans-Roman-69"/>
      <path d="M 2.984375 54.6875 
L 12.5 54.6875 
L 29.59375 8.796875 
L 46.6875 54.6875 
L 56.203125 54.6875 
L 35.6875 0 
L 23.484375 0 
z
" id="BitstreamVeraSans-Roman-76"/>
      <path d="M -0.296875 72.90625 
L 61.375 72.90625 
L 61.375 64.59375 
L 35.5 64.59375 
L 35.5 0 
L 25.59375 0 
L 25.59375 64.59375 
L -0.296875 64.59375 
z
" id="BitstreamVeraSans-Roman-54"/>
      <path d="M 45.40625 27.984375 
Q 45.40625 37.75 41.375 43.109375 
Q 37.359375 48.484375 30.078125 48.484375 
Q 22.859375 48.484375 18.828125 43.109375 
Q 14.796875 37.75 14.796875 27.984375 
Q 14.796875 18.265625 18.828125 12.890625 
Q 22.859375 7.515625 30.078125 7.515625 
Q 37.359375 7.515625 41.375 12.890625 
Q 45.40625 18.265625 45.40625 27.984375 
M 54.390625 6.78125 
Q 54.390625 -7.171875 48.1875 -13.984375 
Q 42 -20.796875 29.203125 -20.796875 
Q 24.46875 -20.796875 20.265625 -20.09375 
Q 16.0625 -19.390625 12.109375 -17.921875 
L 12.109375 -9.1875 
Q 16.0625 -11.328125 19.921875 -12.34375 
Q 23.78125 -13.375 27.78125 -13.375 
Q 36.625 -13.375 41.015625 -8.765625 
Q 45.40625 -4.15625 45.40625 5.171875 
L 45.40625 9.625 
Q 42.625 4.78125 38.28125 2.390625 
Q 33.9375 0 27.875 0 
Q 17.828125 0 11.671875 7.65625 
Q 5.515625 15.328125 5.515625 27.984375 
Q 5.515625 40.671875 11.671875 48.328125 
Q 17.828125 56 27.875 56 
Q 33.9375 56 38.28125 53.609375 
Q 42.625 51.21875 45.40625 46.390625 
L 45.40625 54.6875 
L 54.390625 54.6875 
z
" id="BitstreamVeraSans-Roman-67"/>
      <path d="M 34.28125 27.484375 
Q 23.390625 27.484375 19.1875 25 
Q 14.984375 22.515625 14.984375 16.5 
Q 14.984375 11.71875 18.140625 8.90625 
Q 21.296875 6.109375 26.703125 6.109375 
Q 34.1875 6.109375 38.703125 11.40625 
Q 43.21875 16.703125 43.21875 25.484375 
L 43.21875 27.484375 
z
M 52.203125 31.203125 
L 52.203125 0 
L 43.21875 0 
L 43.21875 8.296875 
Q 40.140625 3.328125 35.546875 0.953125 
Q 30.953125 -1.421875 24.3125 -1.421875 
Q 15.921875 -1.421875 10.953125 3.296875 
Q 6 8.015625 6 15.921875 
Q 6 25.140625 12.171875 29.828125 
Q 18.359375 34.515625 30.609375 34.515625 
L 43.21875 34.515625 
L 43.21875 35.40625 
Q 43.21875 41.609375 39.140625 45 
Q 35.0625 48.390625 27.6875 48.390625 
Q 23 48.390625 18.546875 47.265625 
Q 14.109375 46.140625 10.015625 43.890625 
L 10.015625 52.203125 
Q 14.9375 54.109375 19.578125 55.046875 
Q 24.21875 56 28.609375 56 
Q 40.484375 56 46.34375 49.84375 
Q 52.203125 43.703125 52.203125 31.203125 
" id="BitstreamVeraSans-Roman-61"/>
     </defs>
     <g transform="translate(24.4584375 289.95828125)rotate(-90.0)scale(0.14 -0.14)">
      <use xlink:href="#BitstreamVeraSans-Roman-54"/>
      <use x="60.818359375" xlink:href="#BitstreamVeraSans-Roman-6f"/>
      <use x="122.0" xlink:href="#BitstreamVeraSans-Roman-74"/>
      <use x="161.208984375" xlink:href="#BitstreamVeraSans-Roman-61"/>
      <use x="222.48828125" xlink:href="#BitstreamVeraSans-Roman-6c"/>
      <use x="250.271484375" xlink:href="#BitstreamVeraSans-Roman-20"/>
      <use x="282.05859375" xlink:href="#BitstreamVeraSans-Roman-73"/>
      <use x="334.158203125" xlink:href="#BitstreamVeraSans-Roman-6f"/>
      <use x="395.33984375" xlink:href="#BitstreamVeraSans-Roman-6c"/>
      <use x="423.123046875" xlink:href="#BitstreamVeraSans-Roman-76"/>
      <use x="482.302734375" xlink:href="#BitstreamVeraSans-Roman-69"/>
      <use x="510.0859375" xlink:href="#BitstreamVeraSans-Roman-6e"/>
      <use x="573.46484375" xlink:href="#BitstreamVeraSans-Roman-67"/>
      <use x="636.94140625" xlink:href="#BitstreamVeraSans-Roman-20"/>
      <use x="668.728515625" xlink:href="#BitstreamVeraSans-Roman-74"/>
      <use x="707.9375" xlink:href="#BitstreamVeraSans-Roman-69"/>
      <use x="735.720703125" xlink:href="#BitstreamVeraSans-Roman-6d"/>
      <use x="833.1328125" xlink:href="#BitstreamVeraSans-Roman-65"/>
      <use x="894.65625" xlink:href="#BitstreamVeraSans-Roman-20"/>
      <use x="926.443359375" xlink:href="#BitstreamVeraSans-Roman-28"/>
      <use x="965.45703125" xlink:href="#BitstreamVeraSans-Roman-73"/>
      <use x="1017.55664062" xlink:href="#BitstreamVeraSans-Roman-29"/>
     </g>
    </g>
   </g>
   <g id="legend_1">
    <g id="patch_7">
     <path d="M 79 198.26 
L 264.74375 198.26 
L 264.74375 50.2 
L 79 50.2 
z
" style="fill:#ffffff;stroke:#000000;stroke-linejoin:miter;"/>
    </g>
    <g id="line2d_34">
     <path d="M 88.8 61.540625 
L 108.4 61.540625 
" style="fill:none;stroke:#000000;stroke-linecap:round;stroke-width:1.5;"/>
    </g>
    <g id="line2d_35">
     <g>
      <use style="stroke:#000000;stroke-linejoin:bevel;stroke-width:0.5;" x="88.8" xlink:href="#m8afc1c74bd" y="61.540625"/>
      <use style="stroke:#000000;stroke-linejoin:bevel;stroke-width:0.5;" x="108.4" xlink:href="#m8afc1c74bd" y="61.540625"/>
     </g>
    </g>
    <g id="text_16">
     <!-- Width 100 -->
     <defs>
      <path d="M 45.40625 46.390625 
L 45.40625 75.984375 
L 54.390625 75.984375 
L 54.390625 0 
L 45.40625 0 
L 45.40625 8.203125 
Q 42.578125 3.328125 38.25 0.953125 
Q 33.9375 -1.421875 27.875 -1.421875 
Q 17.96875 -1.421875 11.734375 6.484375 
Q 5.515625 14.40625 5.515625 27.296875 
Q 5.515625 40.1875 11.734375 48.09375 
Q 17.96875 56 27.875 56 
Q 33.9375 56 38.25 53.625 
Q 42.578125 51.265625 45.40625 46.390625 
M 14.796875 27.296875 
Q 14.796875 17.390625 18.875 11.75 
Q 22.953125 6.109375 30.078125 6.109375 
Q 37.203125 6.109375 41.296875 11.75 
Q 45.40625 17.390625 45.40625 27.296875 
Q 45.40625 37.203125 41.296875 42.84375 
Q 37.203125 48.484375 30.078125 48.484375 
Q 22.953125 48.484375 18.875 42.84375 
Q 14.796875 37.203125 14.796875 27.296875 
" id="BitstreamVeraSans-Roman-64"/>
      <path d="M 54.890625 33.015625 
L 54.890625 0 
L 45.90625 0 
L 45.90625 32.71875 
Q 45.90625 40.484375 42.875 44.328125 
Q 39.84375 48.1875 33.796875 48.1875 
Q 26.515625 48.1875 22.3125 43.546875 
Q 18.109375 38.921875 18.109375 30.90625 
L 18.109375 0 
L 9.078125 0 
L 9.078125 75.984375 
L 18.109375 75.984375 
L 18.109375 46.1875 
Q 21.34375 51.125 25.703125 53.5625 
Q 30.078125 56 35.796875 56 
Q 45.21875 56 50.046875 50.171875 
Q 54.890625 44.34375 54.890625 33.015625 
" id="BitstreamVeraSans-Roman-68"/>
      <path d="M 3.328125 72.90625 
L 13.28125 72.90625 
L 28.609375 11.28125 
L 43.890625 72.90625 
L 54.984375 72.90625 
L 70.3125 11.28125 
L 85.59375 72.90625 
L 95.609375 72.90625 
L 77.296875 0 
L 64.890625 0 
L 49.515625 63.28125 
L 33.984375 0 
L 21.578125 0 
z
" id="BitstreamVeraSans-Roman-57"/>
     </defs>
     <g transform="translate(123.8 66.440625)scale(0.14 -0.14)">
      <use xlink:href="#BitstreamVeraSans-Roman-57"/>
      <use x="98.845703125" xlink:href="#BitstreamVeraSans-Roman-69"/>
      <use x="126.62890625" xlink:href="#BitstreamVeraSans-Roman-64"/>
      <use x="190.10546875" xlink:href="#BitstreamVeraSans-Roman-74"/>
      <use x="229.314453125" xlink:href="#BitstreamVeraSans-Roman-68"/>
      <use x="292.693359375" xlink:href="#BitstreamVeraSans-Roman-20"/>
      <use x="324.48046875" xlink:href="#BitstreamVeraSans-Roman-31"/>
      <use x="388.103515625" xlink:href="#BitstreamVeraSans-Roman-30"/>
      <use x="451.7265625" xlink:href="#BitstreamVeraSans-Roman-30"/>
     </g>
    </g>
    <g id="line2d_36">
     <path d="M 88.8 82.092812 
L 108.4 82.092812 
" style="fill:none;stroke:#000000;stroke-linecap:round;stroke-width:1.5;"/>
    </g>
    <g id="line2d_37">
     <g>
      <use style="stroke:#000000;stroke-linejoin:miter;stroke-width:0.5;" x="88.8" xlink:href="#m4d1cf0bcd5" y="82.0928125"/>
      <use style="stroke:#000000;stroke-linejoin:miter;stroke-width:0.5;" x="108.4" xlink:href="#m4d1cf0bcd5" y="82.0928125"/>
     </g>
    </g>
    <g id="text_17">
     <!-- Width 200 -->
     <g transform="translate(123.8 86.9928125)scale(0.14 -0.14)">
      <use xlink:href="#BitstreamVeraSans-Roman-57"/>
      <use x="98.845703125" xlink:href="#BitstreamVeraSans-Roman-69"/>
      <use x="126.62890625" xlink:href="#BitstreamVeraSans-Roman-64"/>
      <use x="190.10546875" xlink:href="#BitstreamVeraSans-Roman-74"/>
      <use x="229.314453125" xlink:href="#BitstreamVeraSans-Roman-68"/>
      <use x="292.693359375" xlink:href="#BitstreamVeraSans-Roman-20"/>
      <use x="324.48046875" xlink:href="#BitstreamVeraSans-Roman-32"/>
      <use x="388.103515625" xlink:href="#BitstreamVeraSans-Roman-30"/>
      <use x="451.7265625" xlink:href="#BitstreamVeraSans-Roman-30"/>
     </g>
    </g>
    <g id="line2d_38">
     <path d="M 88.8 102.645 
L 108.4 102.645 
" style="fill:none;stroke:#000000;stroke-linecap:round;stroke-width:1.5;"/>
    </g>
    <g id="line2d_39">
     <g>
      <use style="stroke:#000000;stroke-width:0.5;" x="88.8" xlink:href="#ma3a454029f" y="102.645"/>
      <use style="stroke:#000000;stroke-width:0.5;" x="108.4" xlink:href="#ma3a454029f" y="102.645"/>
     </g>
    </g>
    <g id="text_18">
     <!-- Width 400 -->
     <g transform="translate(123.8 107.545)scale(0.14 -0.14)">
      <use xlink:href="#BitstreamVeraSans-Roman-57"/>
      <use x="98.845703125" xlink:href="#BitstreamVeraSans-Roman-69"/>
      <use x="126.62890625" xlink:href="#BitstreamVeraSans-Roman-64"/>
      <use x="190.10546875" xlink:href="#BitstreamVeraSans-Roman-74"/>
      <use x="229.314453125" xlink:href="#BitstreamVeraSans-Roman-68"/>
      <use x="292.693359375" xlink:href="#BitstreamVeraSans-Roman-20"/>
      <use x="324.48046875" xlink:href="#BitstreamVeraSans-Roman-34"/>
      <use x="388.103515625" xlink:href="#BitstreamVeraSans-Roman-30"/>
      <use x="451.7265625" xlink:href="#BitstreamVeraSans-Roman-30"/>
     </g>
    </g>
    <g id="line2d_40">
     <path d="M 88.8 123.197187 
L 108.4 123.197187 
" style="fill:none;stroke:#000000;stroke-linecap:round;stroke-width:1.5;"/>
    </g>
    <g id="line2d_41">
     <g>
      <use style="stroke:#000000;stroke-linejoin:miter;stroke-width:0.5;" x="88.8" xlink:href="#m67408ef7e4" y="123.1971875"/>
      <use style="stroke:#000000;stroke-linejoin:miter;stroke-width:0.5;" x="108.4" xlink:href="#m67408ef7e4" y="123.1971875"/>
     </g>
    </g>
    <g id="text_19">
     <!-- Width 600 -->
     <g transform="translate(123.8 128.0971875)scale(0.14 -0.14)">
      <use xlink:href="#BitstreamVeraSans-Roman-57"/>
      <use x="98.845703125" xlink:href="#BitstreamVeraSans-Roman-69"/>
      <use x="126.62890625" xlink:href="#BitstreamVeraSans-Roman-64"/>
      <use x="190.10546875" xlink:href="#BitstreamVeraSans-Roman-74"/>
      <use x="229.314453125" xlink:href="#BitstreamVeraSans-Roman-68"/>
      <use x="292.693359375" xlink:href="#BitstreamVeraSans-Roman-20"/>
      <use x="324.48046875" xlink:href="#BitstreamVeraSans-Roman-36"/>
      <use x="388.103515625" xlink:href="#BitstreamVeraSans-Roman-30"/>
      <use x="451.7265625" xlink:href="#BitstreamVeraSans-Roman-30"/>
     </g>
    </g>
    <g id="line2d_42">
     <path d="M 88.8 143.749375 
L 108.4 143.749375 
" style="fill:none;stroke:#000000;stroke-linecap:round;stroke-width:1.5;"/>
    </g>
    <g id="line2d_43">
     <g>
      <use style="stroke:#000000;stroke-linejoin:miter;stroke-width:0.5;" x="88.8" xlink:href="#m24c7a93e44" y="143.749375"/>
      <use style="stroke:#000000;stroke-linejoin:miter;stroke-width:0.5;" x="108.4" xlink:href="#m24c7a93e44" y="143.749375"/>
     </g>
    </g>
    <g id="text_20">
     <!-- Exact width -->
     <defs>
      <path d="M 4.203125 54.6875 
L 13.1875 54.6875 
L 24.421875 12.015625 
L 35.59375 54.6875 
L 46.1875 54.6875 
L 57.421875 12.015625 
L 68.609375 54.6875 
L 77.59375 54.6875 
L 63.28125 0 
L 52.6875 0 
L 40.921875 44.828125 
L 29.109375 0 
L 18.5 0 
z
" id="BitstreamVeraSans-Roman-77"/>
      <path d="M 9.8125 72.90625 
L 55.90625 72.90625 
L 55.90625 64.59375 
L 19.671875 64.59375 
L 19.671875 43.015625 
L 54.390625 43.015625 
L 54.390625 34.71875 
L 19.671875 34.71875 
L 19.671875 8.296875 
L 56.78125 8.296875 
L 56.78125 0 
L 9.8125 0 
z
" id="BitstreamVeraSans-Roman-45"/>
      <path d="M 54.890625 54.6875 
L 35.109375 28.078125 
L 55.90625 0 
L 45.3125 0 
L 29.390625 21.484375 
L 13.484375 0 
L 2.875 0 
L 24.125 28.609375 
L 4.6875 54.6875 
L 15.28125 54.6875 
L 29.78125 35.203125 
L 44.28125 54.6875 
z
" id="BitstreamVeraSans-Roman-78"/>
     </defs>
     <g transform="translate(123.8 148.649375)scale(0.14 -0.14)">
      <use xlink:href="#BitstreamVeraSans-Roman-45"/>
      <use x="63.18359375" xlink:href="#BitstreamVeraSans-Roman-78"/>
      <use x="122.36328125" xlink:href="#BitstreamVeraSans-Roman-61"/>
      <use x="183.642578125" xlink:href="#BitstreamVeraSans-Roman-63"/>
      <use x="238.623046875" xlink:href="#BitstreamVeraSans-Roman-74"/>
      <use x="277.83203125" xlink:href="#BitstreamVeraSans-Roman-20"/>
      <use x="309.619140625" xlink:href="#BitstreamVeraSans-Roman-77"/>
      <use x="391.40625" xlink:href="#BitstreamVeraSans-Roman-69"/>
      <use x="419.189453125" xlink:href="#BitstreamVeraSans-Roman-64"/>
      <use x="482.666015625" xlink:href="#BitstreamVeraSans-Roman-74"/>
      <use x="521.875" xlink:href="#BitstreamVeraSans-Roman-68"/>
     </g>
    </g>
    <g id="line2d_44">
     <path d="M 88.8 164.301562 
L 108.4 164.301562 
" style="fill:none;stroke:#000000;stroke-dasharray:6.000000,6.000000;stroke-dashoffset:0.0;stroke-width:1.5;"/>
    </g>
    <g id="line2d_45"/>
    <g id="text_21">
     <!-- CPLEX without cuts -->
     <defs>
      <path d="M 19.671875 64.796875 
L 19.671875 37.40625 
L 32.078125 37.40625 
Q 38.96875 37.40625 42.71875 40.96875 
Q 46.484375 44.53125 46.484375 51.125 
Q 46.484375 57.671875 42.71875 61.234375 
Q 38.96875 64.796875 32.078125 64.796875 
z
M 9.8125 72.90625 
L 32.078125 72.90625 
Q 44.34375 72.90625 50.609375 67.359375 
Q 56.890625 61.8125 56.890625 51.125 
Q 56.890625 40.328125 50.609375 34.8125 
Q 44.34375 29.296875 32.078125 29.296875 
L 19.671875 29.296875 
L 19.671875 0 
L 9.8125 0 
z
" id="BitstreamVeraSans-Roman-50"/>
      <path d="M 9.8125 72.90625 
L 19.671875 72.90625 
L 19.671875 8.296875 
L 55.171875 8.296875 
L 55.171875 0 
L 9.8125 0 
z
" id="BitstreamVeraSans-Roman-4c"/>
      <path d="M 6.296875 72.90625 
L 16.890625 72.90625 
L 35.015625 45.796875 
L 53.21875 72.90625 
L 63.8125 72.90625 
L 40.375 37.890625 
L 65.375 0 
L 54.78125 0 
L 34.28125 31 
L 13.625 0 
L 2.984375 0 
L 29 38.921875 
z
" id="BitstreamVeraSans-Roman-58"/>
      <path d="M 64.40625 67.28125 
L 64.40625 56.890625 
Q 59.421875 61.53125 53.78125 63.8125 
Q 48.140625 66.109375 41.796875 66.109375 
Q 29.296875 66.109375 22.65625 58.46875 
Q 16.015625 50.828125 16.015625 36.375 
Q 16.015625 21.96875 22.65625 14.328125 
Q 29.296875 6.6875 41.796875 6.6875 
Q 48.140625 6.6875 53.78125 8.984375 
Q 59.421875 11.28125 64.40625 15.921875 
L 64.40625 5.609375 
Q 59.234375 2.09375 53.4375 0.328125 
Q 47.65625 -1.421875 41.21875 -1.421875 
Q 24.65625 -1.421875 15.125 8.703125 
Q 5.609375 18.84375 5.609375 36.375 
Q 5.609375 53.953125 15.125 64.078125 
Q 24.65625 74.21875 41.21875 74.21875 
Q 47.75 74.21875 53.53125 72.484375 
Q 59.328125 70.75 64.40625 67.28125 
" id="BitstreamVeraSans-Roman-43"/>
     </defs>
     <g transform="translate(123.8 169.2015625)scale(0.14 -0.14)">
      <use xlink:href="#BitstreamVeraSans-Roman-43"/>
      <use x="69.82421875" xlink:href="#BitstreamVeraSans-Roman-50"/>
      <use x="130.126953125" xlink:href="#BitstreamVeraSans-Roman-4c"/>
      <use x="185.83984375" xlink:href="#BitstreamVeraSans-Roman-45"/>
      <use x="249.0234375" xlink:href="#BitstreamVeraSans-Roman-58"/>
      <use x="317.529296875" xlink:href="#BitstreamVeraSans-Roman-20"/>
      <use x="349.31640625" xlink:href="#BitstreamVeraSans-Roman-77"/>
      <use x="431.103515625" xlink:href="#BitstreamVeraSans-Roman-69"/>
      <use x="458.88671875" xlink:href="#BitstreamVeraSans-Roman-74"/>
      <use x="498.095703125" xlink:href="#BitstreamVeraSans-Roman-68"/>
      <use x="561.474609375" xlink:href="#BitstreamVeraSans-Roman-6f"/>
      <use x="622.65625" xlink:href="#BitstreamVeraSans-Roman-75"/>
      <use x="686.03515625" xlink:href="#BitstreamVeraSans-Roman-74"/>
      <use x="725.244140625" xlink:href="#BitstreamVeraSans-Roman-20"/>
      <use x="757.03125" xlink:href="#BitstreamVeraSans-Roman-63"/>
      <use x="812.01171875" xlink:href="#BitstreamVeraSans-Roman-75"/>
      <use x="875.390625" xlink:href="#BitstreamVeraSans-Roman-74"/>
      <use x="914.599609375" xlink:href="#BitstreamVeraSans-Roman-73"/>
     </g>
    </g>
    <g id="line2d_46">
     <path d="M 88.8 184.85375 
L 108.4 184.85375 
" style="fill:none;stroke:#000000;stroke-dasharray:1.000000,3.000000;stroke-dashoffset:0.0;stroke-width:1.5;"/>
    </g>
    <g id="line2d_47"/>
    <g id="text_22">
     <!-- CPLEX with cuts -->
     <g transform="translate(123.8 189.75375)scale(0.14 -0.14)">
      <use xlink:href="#BitstreamVeraSans-Roman-43"/>
      <use x="69.82421875" xlink:href="#BitstreamVeraSans-Roman-50"/>
      <use x="130.126953125" xlink:href="#BitstreamVeraSans-Roman-4c"/>
      <use x="185.83984375" xlink:href="#BitstreamVeraSans-Roman-45"/>
      <use x="249.0234375" xlink:href="#BitstreamVeraSans-Roman-58"/>
      <use x="317.529296875" xlink:href="#BitstreamVeraSans-Roman-20"/>
      <use x="349.31640625" xlink:href="#BitstreamVeraSans-Roman-77"/>
      <use x="431.103515625" xlink:href="#BitstreamVeraSans-Roman-69"/>
      <use x="458.88671875" xlink:href="#BitstreamVeraSans-Roman-74"/>
      <use x="498.095703125" xlink:href="#BitstreamVeraSans-Roman-68"/>
      <use x="561.474609375" xlink:href="#BitstreamVeraSans-Roman-20"/>
      <use x="593.26171875" xlink:href="#BitstreamVeraSans-Roman-63"/>
      <use x="648.2421875" xlink:href="#BitstreamVeraSans-Roman-75"/>
      <use x="711.62109375" xlink:href="#BitstreamVeraSans-Roman-74"/>
      <use x="750.830078125" xlink:href="#BitstreamVeraSans-Roman-73"/>
     </g>
    </g>
   </g>
  </g>
 </g>
 <defs>
  <clipPath id="pd2db95ed4f">
   <rect height="345.6" width="446.4" x="72.0" y="43.2"/>
  </clipPath>
 </defs>
</svg>
