<?xml version="1.0" encoding="utf-8" standalone="no"?>
<!DOCTYPE svg PUBLIC "-//W3C//DTD SVG 1.1//EN"
  "http://www.w3.org/Graphics/SVG/1.1/DTD/svg11.dtd">
<!-- Created with matplotlib (http://matplotlib.org/) -->
<svg height="488pt" version="1.1" viewBox="0 0 593 488" width="593pt" xmlns="http://www.w3.org/2000/svg" xmlns:xlink="http://www.w3.org/1999/xlink">
 <defs>
  <style type="text/css">
*{stroke-linecap:butt;stroke-linejoin:round;stroke-miterlimit:100000;}
  </style>
 </defs>
 <g id="figure_1">
  <g id="patch_1">
   <path d="M 0 488.346688 
L 593.550937 488.346688 
L 593.550937 -0 
L 0 -0 
z
" style="fill:#ffffff;"/>
  </g>
  <g id="axes_1">
   <g id="patch_2">
    <path d="M 74.286875 359.574688 
L 520.686875 359.574688 
L 520.686875 13.974688 
L 74.286875 13.974688 
z
" style="fill:#ffffff;"/>
   </g>
   <g id="line2d_1">
    <path clip-path="url(#p9264ad06b4)" d="M 84.915446 69.396585 
L 127.429732 73.114253 
L 169.944018 71.813316 
L 212.458304 69.833522 
L 297.486875 74.57071 
L 510.058304 62.995579 
" style="fill:none;stroke:#000000;stroke-dasharray:6.000000,6.000000;stroke-dashoffset:0.0;stroke-width:1.5;"/>
    <defs>
     <path d="M 0 -3 
L -0.673542 -0.927051 
L -2.85317 -0.927051 
L -1.089814 0.354102 
L -1.763356 2.427051 
L -0 1.145898 
L 1.763356 2.427051 
L 1.089814 0.354102 
L 2.85317 -0.927051 
L 0.673542 -0.927051 
z
" id="mc5dfb332f1" style="stroke:#000000;stroke-linejoin:bevel;stroke-width:0.5;"/>
    </defs>
    <g clip-path="url(#p9264ad06b4)">
     <use style="stroke:#000000;stroke-linejoin:bevel;stroke-width:0.5;" x="84.9154464286" xlink:href="#mc5dfb332f1" y="69.3965846429"/>
     <use style="stroke:#000000;stroke-linejoin:bevel;stroke-width:0.5;" x="127.429732143" xlink:href="#mc5dfb332f1" y="73.1142532143"/>
     <use style="stroke:#000000;stroke-linejoin:bevel;stroke-width:0.5;" x="169.944017857" xlink:href="#mc5dfb332f1" y="71.8133160714"/>
     <use style="stroke:#000000;stroke-linejoin:bevel;stroke-width:0.5;" x="212.458303571" xlink:href="#mc5dfb332f1" y="69.8335217857"/>
     <use style="stroke:#000000;stroke-linejoin:bevel;stroke-width:0.5;" x="297.486875" xlink:href="#mc5dfb332f1" y="74.5707103571"/>
     <use style="stroke:#000000;stroke-linejoin:bevel;stroke-width:0.5;" x="510.058303571" xlink:href="#mc5dfb332f1" y="62.9955789286"/>
    </g>
   </g>
   <g id="line2d_2">
    <path clip-path="url(#p9264ad06b4)" d="M 84.915446 69.396585 
L 127.429732 72.228036 
L 169.944018 68.340036 
L 212.458304 70.559282 
L 297.486875 81.211168 
L 510.058304 66.463922 
" style="fill:none;stroke:#000000;stroke-linecap:round;stroke-width:1.5;"/>
    <g clip-path="url(#p9264ad06b4)">
     <use style="stroke:#000000;stroke-linejoin:bevel;stroke-width:0.5;" x="84.9154464286" xlink:href="#mc5dfb332f1" y="69.3965846429"/>
     <use style="stroke:#000000;stroke-linejoin:bevel;stroke-width:0.5;" x="127.429732143" xlink:href="#mc5dfb332f1" y="72.2280360714"/>
     <use style="stroke:#000000;stroke-linejoin:bevel;stroke-width:0.5;" x="169.944017857" xlink:href="#mc5dfb332f1" y="68.3400360714"/>
     <use style="stroke:#000000;stroke-linejoin:bevel;stroke-width:0.5;" x="212.458303571" xlink:href="#mc5dfb332f1" y="70.5592817857"/>
     <use style="stroke:#000000;stroke-linejoin:bevel;stroke-width:0.5;" x="297.486875" xlink:href="#mc5dfb332f1" y="81.2111675"/>
     <use style="stroke:#000000;stroke-linejoin:bevel;stroke-width:0.5;" x="510.058303571" xlink:href="#mc5dfb332f1" y="66.4639217857"/>
    </g>
   </g>
   <g id="line2d_3">
    <path clip-path="url(#p9264ad06b4)" d="M 84.915446 82.023328 
L 127.429732 78.036585 
L 169.944018 71.299853 
L 212.458304 66.222002 
L 297.486875 70.912288 
L 510.058304 69.443488 
" style="fill:none;stroke:#000000;stroke-dasharray:6.000000,6.000000;stroke-dashoffset:0.0;stroke-width:1.5;"/>
    <defs>
     <path d="M 0 -3 
L -3 3 
L 3 3 
z
" id="m3d01c44790" style="stroke:#000000;stroke-linejoin:miter;stroke-width:0.5;"/>
    </defs>
    <g clip-path="url(#p9264ad06b4)">
     <use style="stroke:#000000;stroke-linejoin:miter;stroke-width:0.5;" x="84.9154464286" xlink:href="#m3d01c44790" y="82.0233275"/>
     <use style="stroke:#000000;stroke-linejoin:miter;stroke-width:0.5;" x="127.429732143" xlink:href="#m3d01c44790" y="78.0365846429"/>
     <use style="stroke:#000000;stroke-linejoin:miter;stroke-width:0.5;" x="169.944017857" xlink:href="#m3d01c44790" y="71.2998532143"/>
     <use style="stroke:#000000;stroke-linejoin:miter;stroke-width:0.5;" x="212.458303571" xlink:href="#m3d01c44790" y="66.2220017857"/>
     <use style="stroke:#000000;stroke-linejoin:miter;stroke-width:0.5;" x="297.486875" xlink:href="#m3d01c44790" y="70.9122875"/>
     <use style="stroke:#000000;stroke-linejoin:miter;stroke-width:0.5;" x="510.058303571" xlink:href="#m3d01c44790" y="69.4434875"/>
    </g>
   </g>
   <g id="line2d_4">
    <path clip-path="url(#p9264ad06b4)" d="M 84.915446 82.023328 
L 127.429732 75.807465 
L 169.944018 66.782368 
L 212.458304 71.645453 
L 297.486875 69.063328 
L 510.058304 74.953339 
" style="fill:none;stroke:#000000;stroke-linecap:round;stroke-width:1.5;"/>
    <g clip-path="url(#p9264ad06b4)">
     <use style="stroke:#000000;stroke-linejoin:miter;stroke-width:0.5;" x="84.9154464286" xlink:href="#m3d01c44790" y="82.0233275"/>
     <use style="stroke:#000000;stroke-linejoin:miter;stroke-width:0.5;" x="127.429732143" xlink:href="#m3d01c44790" y="75.8074646429"/>
     <use style="stroke:#000000;stroke-linejoin:miter;stroke-width:0.5;" x="169.944017857" xlink:href="#m3d01c44790" y="66.7823675"/>
     <use style="stroke:#000000;stroke-linejoin:miter;stroke-width:0.5;" x="212.458303571" xlink:href="#m3d01c44790" y="71.6454532143"/>
     <use style="stroke:#000000;stroke-linejoin:miter;stroke-width:0.5;" x="297.486875" xlink:href="#m3d01c44790" y="69.0633275"/>
     <use style="stroke:#000000;stroke-linejoin:miter;stroke-width:0.5;" x="510.058303571" xlink:href="#m3d01c44790" y="74.9533389286"/>
    </g>
   </g>
   <g id="line2d_5">
    <path clip-path="url(#p9264ad06b4)" d="M 84.915446 101.416425 
L 127.429732 140.296425 
L 169.944018 106.464653 
L 212.458304 128.585522 
L 297.486875 97.195168 
L 510.058304 95.331396 
" style="fill:none;stroke:#000000;stroke-dasharray:6.000000,6.000000;stroke-dashoffset:0.0;stroke-width:1.5;"/>
    <defs>
     <path d="M 0 3 
C 0.795609 3 1.55874 2.683901 2.12132 2.12132 
C 2.683901 1.55874 3 0.795609 3 0 
C 3 -0.795609 2.683901 -1.55874 2.12132 -2.12132 
C 1.55874 -2.683901 0.795609 -3 0 -3 
C -0.795609 -3 -1.55874 -2.683901 -2.12132 -2.12132 
C -2.683901 -1.55874 -3 -0.795609 -3 0 
C -3 0.795609 -2.683901 1.55874 -2.12132 2.12132 
C -1.55874 2.683901 -0.795609 3 0 3 
z
" id="m8acc1a4666" style="stroke:#000000;stroke-width:0.5;"/>
    </defs>
    <g clip-path="url(#p9264ad06b4)">
     <use style="stroke:#000000;stroke-width:0.5;" x="84.9154464286" xlink:href="#m8acc1a4666" y="101.416424643"/>
     <use style="stroke:#000000;stroke-width:0.5;" x="127.429732143" xlink:href="#m8acc1a4666" y="140.296424643"/>
     <use style="stroke:#000000;stroke-width:0.5;" x="169.944017857" xlink:href="#m8acc1a4666" y="106.464653214"/>
     <use style="stroke:#000000;stroke-width:0.5;" x="212.458303571" xlink:href="#m8acc1a4666" y="128.585521786"/>
     <use style="stroke:#000000;stroke-width:0.5;" x="297.486875" xlink:href="#m8acc1a4666" y="97.1951675"/>
     <use style="stroke:#000000;stroke-width:0.5;" x="510.058303571" xlink:href="#m8acc1a4666" y="95.3313960714"/>
    </g>
   </g>
   <g id="line2d_6">
    <path clip-path="url(#p9264ad06b4)" d="M 84.915446 101.416425 
L 127.429732 107.930985 
L 169.944018 121.078596 
L 212.458304 114.909636 
L 297.486875 119.725819 
L 510.058304 131.454002 
" style="fill:none;stroke:#000000;stroke-linecap:round;stroke-width:1.5;"/>
    <g clip-path="url(#p9264ad06b4)">
     <use style="stroke:#000000;stroke-width:0.5;" x="84.9154464286" xlink:href="#m8acc1a4666" y="101.416424643"/>
     <use style="stroke:#000000;stroke-width:0.5;" x="127.429732143" xlink:href="#m8acc1a4666" y="107.930984643"/>
     <use style="stroke:#000000;stroke-width:0.5;" x="169.944017857" xlink:href="#m8acc1a4666" y="121.078596071"/>
     <use style="stroke:#000000;stroke-width:0.5;" x="212.458303571" xlink:href="#m8acc1a4666" y="114.909636071"/>
     <use style="stroke:#000000;stroke-width:0.5;" x="297.486875" xlink:href="#m8acc1a4666" y="119.725818929"/>
     <use style="stroke:#000000;stroke-width:0.5;" x="510.058303571" xlink:href="#m8acc1a4666" y="131.454001786"/>
    </g>
   </g>
   <g id="line2d_7">
    <path clip-path="url(#p9264ad06b4)" d="M 84.915446 220.105339 
L 127.429732 252.386848 
L 169.944018 249.671419 
L 212.458304 266.455236 
L 297.486875 267.857385 
L 510.058304 275.322345 
" style="fill:none;stroke:#000000;stroke-dasharray:6.000000,6.000000;stroke-dashoffset:0.0;stroke-width:1.5;"/>
    <defs>
     <path d="M -3 3 
L 3 3 
L 3 -3 
L -3 -3 
z
" id="m96fe63231d" style="stroke:#000000;stroke-linejoin:miter;stroke-width:0.5;"/>
    </defs>
    <g clip-path="url(#p9264ad06b4)">
     <use style="stroke:#000000;stroke-linejoin:miter;stroke-width:0.5;" x="84.9154464286" xlink:href="#m96fe63231d" y="220.105338929"/>
     <use style="stroke:#000000;stroke-linejoin:miter;stroke-width:0.5;" x="127.429732143" xlink:href="#m96fe63231d" y="252.3868475"/>
     <use style="stroke:#000000;stroke-linejoin:miter;stroke-width:0.5;" x="169.944017857" xlink:href="#m96fe63231d" y="249.671418929"/>
     <use style="stroke:#000000;stroke-linejoin:miter;stroke-width:0.5;" x="212.458303571" xlink:href="#m96fe63231d" y="266.455236071"/>
     <use style="stroke:#000000;stroke-linejoin:miter;stroke-width:0.5;" x="297.486875" xlink:href="#m96fe63231d" y="267.857384643"/>
     <use style="stroke:#000000;stroke-linejoin:miter;stroke-width:0.5;" x="510.058303571" xlink:href="#m96fe63231d" y="275.322344643"/>
    </g>
   </g>
   <g id="line2d_8">
    <path clip-path="url(#p9264ad06b4)" d="M 84.915446 220.105339 
L 127.429732 199.717408 
L 169.944018 228.268905 
L 212.458304 224.795625 
L 297.486875 257.56591 
L 510.058304 262.24879 
" style="fill:none;stroke:#000000;stroke-linecap:round;stroke-width:1.5;"/>
    <g clip-path="url(#p9264ad06b4)">
     <use style="stroke:#000000;stroke-linejoin:miter;stroke-width:0.5;" x="84.9154464286" xlink:href="#m96fe63231d" y="220.105338929"/>
     <use style="stroke:#000000;stroke-linejoin:miter;stroke-width:0.5;" x="127.429732143" xlink:href="#m96fe63231d" y="199.7174075"/>
     <use style="stroke:#000000;stroke-linejoin:miter;stroke-width:0.5;" x="169.944017857" xlink:href="#m96fe63231d" y="228.268904643"/>
     <use style="stroke:#000000;stroke-linejoin:miter;stroke-width:0.5;" x="212.458303571" xlink:href="#m96fe63231d" y="224.795624643"/>
     <use style="stroke:#000000;stroke-linejoin:miter;stroke-width:0.5;" x="297.486875" xlink:href="#m96fe63231d" y="257.565910357"/>
     <use style="stroke:#000000;stroke-linejoin:miter;stroke-width:0.5;" x="510.058303571" xlink:href="#m96fe63231d" y="262.248790357"/>
    </g>
   </g>
   <g id="line2d_9">
    <path clip-path="url(#p9264ad06b4)" d="M 84.915446 310.33903 
L 127.429732 341.159145 
L 169.944018 323.321248 
L 212.458304 342.729156 
L 297.486875 331.430505 
L 510.058304 344.88175 
" style="fill:none;stroke:#000000;stroke-dasharray:6.000000,6.000000;stroke-dashoffset:0.0;stroke-width:1.5;"/>
    <defs>
     <path d="M -0 3 
L 3 -3 
L -3 -3 
z
" id="m15c14238ca" style="stroke:#000000;stroke-linejoin:miter;stroke-width:0.5;"/>
    </defs>
    <g clip-path="url(#p9264ad06b4)">
     <use style="stroke:#000000;stroke-linejoin:miter;stroke-width:0.5;" x="84.9154464286" xlink:href="#m15c14238ca" y="310.339030357"/>
     <use style="stroke:#000000;stroke-linejoin:miter;stroke-width:0.5;" x="127.429732143" xlink:href="#m15c14238ca" y="341.159144643"/>
     <use style="stroke:#000000;stroke-linejoin:miter;stroke-width:0.5;" x="169.944017857" xlink:href="#m15c14238ca" y="323.3212475"/>
     <use style="stroke:#000000;stroke-linejoin:miter;stroke-width:0.5;" x="212.458303571" xlink:href="#m15c14238ca" y="342.729156071"/>
     <use style="stroke:#000000;stroke-linejoin:miter;stroke-width:0.5;" x="297.486875" xlink:href="#m15c14238ca" y="331.430504643"/>
     <use style="stroke:#000000;stroke-linejoin:miter;stroke-width:0.5;" x="510.058303571" xlink:href="#m15c14238ca" y="344.881750357"/>
    </g>
   </g>
   <g id="line2d_10">
    <path clip-path="url(#p9264ad06b4)" d="M 84.915446 310.33903 
L 127.429732 340.774048 
L 169.944018 330.615876 
L 212.458304 345.200196 
L 297.486875 336.409613 
L 510.058304 318.497659 
" style="fill:none;stroke:#000000;stroke-linecap:round;stroke-width:1.5;"/>
    <g clip-path="url(#p9264ad06b4)">
     <use style="stroke:#000000;stroke-linejoin:miter;stroke-width:0.5;" x="84.9154464286" xlink:href="#m15c14238ca" y="310.339030357"/>
     <use style="stroke:#000000;stroke-linejoin:miter;stroke-width:0.5;" x="127.429732143" xlink:href="#m15c14238ca" y="340.7740475"/>
     <use style="stroke:#000000;stroke-linejoin:miter;stroke-width:0.5;" x="169.944017857" xlink:href="#m15c14238ca" y="330.615876071"/>
     <use style="stroke:#000000;stroke-linejoin:miter;stroke-width:0.5;" x="212.458303571" xlink:href="#m15c14238ca" y="345.200196071"/>
     <use style="stroke:#000000;stroke-linejoin:miter;stroke-width:0.5;" x="297.486875" xlink:href="#m15c14238ca" y="336.409613214"/>
     <use style="stroke:#000000;stroke-linejoin:miter;stroke-width:0.5;" x="510.058303571" xlink:href="#m15c14238ca" y="318.497658929"/>
    </g>
   </g>
   <g id="line2d_11">
    <path clip-path="url(#p9264ad06b4)" d="M 84.915446 41.955945 
L 127.429732 41.955945 
L 169.944018 41.955945 
L 212.458304 41.955945 
L 297.486875 41.955945 
L 510.058304 41.955945 
" style="fill:none;stroke:#000000;stroke-dasharray:6.000000,6.000000;stroke-dashoffset:0.0;stroke-width:1.5;"/>
   </g>
   <g id="line2d_12">
    <path clip-path="url(#p9264ad06b4)" d="M 84.915446 71.196173 
L 127.429732 71.196173 
L 169.944018 71.196173 
L 212.458304 71.196173 
L 297.486875 71.196173 
L 510.058304 71.196173 
" style="fill:none;stroke:#000000;stroke-dasharray:1.000000,3.000000;stroke-dashoffset:0.0;stroke-width:1.5;"/>
   </g>
   <g id="patch_3">
    <path d="M 74.286875 13.974688 
L 520.686875 13.974688 
" style="fill:none;stroke:#000000;stroke-linecap:square;stroke-linejoin:miter;"/>
   </g>
   <g id="patch_4">
    <path d="M 520.686875 359.574688 
L 520.686875 13.974688 
" style="fill:none;stroke:#000000;stroke-linecap:square;stroke-linejoin:miter;"/>
   </g>
   <g id="patch_5">
    <path d="M 74.286875 359.574688 
L 520.686875 359.574688 
" style="fill:none;stroke:#000000;stroke-linecap:square;stroke-linejoin:miter;"/>
   </g>
   <g id="patch_6">
    <path d="M 74.286875 359.574688 
L 74.286875 13.974688 
" style="fill:none;stroke:#000000;stroke-linecap:square;stroke-linejoin:miter;"/>
   </g>
   <g id="matplotlib.axis_1">
    <g id="xtick_1">
     <g id="line2d_13">
      <defs>
       <path d="M 0 0 
L 0 -4 
" id="m228523b0d5" style="stroke:#000000;stroke-width:0.5;"/>
      </defs>
      <g>
       <use style="stroke:#000000;stroke-width:0.5;" x="84.9154464286" xlink:href="#m228523b0d5" y="359.5746875"/>
      </g>
     </g>
     <g id="line2d_14">
      <defs>
       <path d="M 0 0 
L 0 4 
" id="me4662acd6d" style="stroke:#000000;stroke-width:0.5;"/>
      </defs>
      <g>
       <use style="stroke:#000000;stroke-width:0.5;" x="84.9154464286" xlink:href="#me4662acd6d" y="13.9746875"/>
      </g>
     </g>
     <g id="text_1">
      <!-- 0 -->
      <defs>
       <path d="M 31.78125 66.40625 
Q 24.171875 66.40625 20.328125 58.90625 
Q 16.5 51.421875 16.5 36.375 
Q 16.5 21.390625 20.328125 13.890625 
Q 24.171875 6.390625 31.78125 6.390625 
Q 39.453125 6.390625 43.28125 13.890625 
Q 47.125 21.390625 47.125 36.375 
Q 47.125 51.421875 43.28125 58.90625 
Q 39.453125 66.40625 31.78125 66.40625 
M 31.78125 74.21875 
Q 44.046875 74.21875 50.515625 64.515625 
Q 56.984375 54.828125 56.984375 36.375 
Q 56.984375 17.96875 50.515625 8.265625 
Q 44.046875 -1.421875 31.78125 -1.421875 
Q 19.53125 -1.421875 13.0625 8.265625 
Q 6.59375 17.96875 6.59375 36.375 
Q 6.59375 54.828125 13.0625 64.515625 
Q 19.53125 74.21875 31.78125 74.21875 
" id="BitstreamVeraSans-Roman-30"/>
      </defs>
      <g transform="translate(80.4616964286 374.2125)scale(0.14 -0.14)">
       <use xlink:href="#BitstreamVeraSans-Roman-30"/>
      </g>
     </g>
    </g>
    <g id="xtick_2">
     <g id="line2d_15">
      <g>
       <use style="stroke:#000000;stroke-width:0.5;" x="169.944017857" xlink:href="#m228523b0d5" y="359.5746875"/>
      </g>
     </g>
     <g id="line2d_16">
      <g>
       <use style="stroke:#000000;stroke-width:0.5;" x="169.944017857" xlink:href="#me4662acd6d" y="13.9746875"/>
      </g>
     </g>
     <g id="text_2">
      <!-- 2 -->
      <defs>
       <path d="M 19.1875 8.296875 
L 53.609375 8.296875 
L 53.609375 0 
L 7.328125 0 
L 7.328125 8.296875 
Q 12.9375 14.109375 22.625 23.890625 
Q 32.328125 33.6875 34.8125 36.53125 
Q 39.546875 41.84375 41.421875 45.53125 
Q 43.3125 49.21875 43.3125 52.78125 
Q 43.3125 58.59375 39.234375 62.25 
Q 35.15625 65.921875 28.609375 65.921875 
Q 23.96875 65.921875 18.8125 64.3125 
Q 13.671875 62.703125 7.8125 59.421875 
L 7.8125 69.390625 
Q 13.765625 71.78125 18.9375 73 
Q 24.125 74.21875 28.421875 74.21875 
Q 39.75 74.21875 46.484375 68.546875 
Q 53.21875 62.890625 53.21875 53.421875 
Q 53.21875 48.921875 51.53125 44.890625 
Q 49.859375 40.875 45.40625 35.40625 
Q 44.1875 33.984375 37.640625 27.21875 
Q 31.109375 20.453125 19.1875 8.296875 
" id="BitstreamVeraSans-Roman-32"/>
      </defs>
      <g transform="translate(165.490267857 374.2125)scale(0.14 -0.14)">
       <use xlink:href="#BitstreamVeraSans-Roman-32"/>
      </g>
     </g>
    </g>
    <g id="xtick_3">
     <g id="line2d_17">
      <g>
       <use style="stroke:#000000;stroke-width:0.5;" x="254.972589286" xlink:href="#m228523b0d5" y="359.5746875"/>
      </g>
     </g>
     <g id="line2d_18">
      <g>
       <use style="stroke:#000000;stroke-width:0.5;" x="254.972589286" xlink:href="#me4662acd6d" y="13.9746875"/>
      </g>
     </g>
     <g id="text_3">
      <!-- 4 -->
      <defs>
       <path d="M 37.796875 64.3125 
L 12.890625 25.390625 
L 37.796875 25.390625 
z
M 35.203125 72.90625 
L 47.609375 72.90625 
L 47.609375 25.390625 
L 58.015625 25.390625 
L 58.015625 17.1875 
L 47.609375 17.1875 
L 47.609375 0 
L 37.796875 0 
L 37.796875 17.1875 
L 4.890625 17.1875 
L 4.890625 26.703125 
z
" id="BitstreamVeraSans-Roman-34"/>
      </defs>
      <g transform="translate(250.518839286 374.2125)scale(0.14 -0.14)">
       <use xlink:href="#BitstreamVeraSans-Roman-34"/>
      </g>
     </g>
    </g>
    <g id="xtick_4">
     <g id="line2d_19">
      <g>
       <use style="stroke:#000000;stroke-width:0.5;" x="340.001160714" xlink:href="#m228523b0d5" y="359.5746875"/>
      </g>
     </g>
     <g id="line2d_20">
      <g>
       <use style="stroke:#000000;stroke-width:0.5;" x="340.001160714" xlink:href="#me4662acd6d" y="13.9746875"/>
      </g>
     </g>
     <g id="text_4">
      <!-- 6 -->
      <defs>
       <path d="M 33.015625 40.375 
Q 26.375 40.375 22.484375 35.828125 
Q 18.609375 31.296875 18.609375 23.390625 
Q 18.609375 15.53125 22.484375 10.953125 
Q 26.375 6.390625 33.015625 6.390625 
Q 39.65625 6.390625 43.53125 10.953125 
Q 47.40625 15.53125 47.40625 23.390625 
Q 47.40625 31.296875 43.53125 35.828125 
Q 39.65625 40.375 33.015625 40.375 
M 52.59375 71.296875 
L 52.59375 62.3125 
Q 48.875 64.0625 45.09375 64.984375 
Q 41.3125 65.921875 37.59375 65.921875 
Q 27.828125 65.921875 22.671875 59.328125 
Q 17.53125 52.734375 16.796875 39.40625 
Q 19.671875 43.65625 24.015625 45.921875 
Q 28.375 48.1875 33.59375 48.1875 
Q 44.578125 48.1875 50.953125 41.515625 
Q 57.328125 34.859375 57.328125 23.390625 
Q 57.328125 12.15625 50.6875 5.359375 
Q 44.046875 -1.421875 33.015625 -1.421875 
Q 20.359375 -1.421875 13.671875 8.265625 
Q 6.984375 17.96875 6.984375 36.375 
Q 6.984375 53.65625 15.1875 63.9375 
Q 23.390625 74.21875 37.203125 74.21875 
Q 40.921875 74.21875 44.703125 73.484375 
Q 48.484375 72.75 52.59375 71.296875 
" id="BitstreamVeraSans-Roman-36"/>
      </defs>
      <g transform="translate(335.547410714 374.2125)scale(0.14 -0.14)">
       <use xlink:href="#BitstreamVeraSans-Roman-36"/>
      </g>
     </g>
    </g>
    <g id="xtick_5">
     <g id="line2d_21">
      <g>
       <use style="stroke:#000000;stroke-width:0.5;" x="425.029732143" xlink:href="#m228523b0d5" y="359.5746875"/>
      </g>
     </g>
     <g id="line2d_22">
      <g>
       <use style="stroke:#000000;stroke-width:0.5;" x="425.029732143" xlink:href="#me4662acd6d" y="13.9746875"/>
      </g>
     </g>
     <g id="text_5">
      <!-- 8 -->
      <defs>
       <path d="M 31.78125 34.625 
Q 24.75 34.625 20.71875 30.859375 
Q 16.703125 27.09375 16.703125 20.515625 
Q 16.703125 13.921875 20.71875 10.15625 
Q 24.75 6.390625 31.78125 6.390625 
Q 38.8125 6.390625 42.859375 10.171875 
Q 46.921875 13.96875 46.921875 20.515625 
Q 46.921875 27.09375 42.890625 30.859375 
Q 38.875 34.625 31.78125 34.625 
M 21.921875 38.8125 
Q 15.578125 40.375 12.03125 44.71875 
Q 8.5 49.078125 8.5 55.328125 
Q 8.5 64.0625 14.71875 69.140625 
Q 20.953125 74.21875 31.78125 74.21875 
Q 42.671875 74.21875 48.875 69.140625 
Q 55.078125 64.0625 55.078125 55.328125 
Q 55.078125 49.078125 51.53125 44.71875 
Q 48 40.375 41.703125 38.8125 
Q 48.828125 37.15625 52.796875 32.3125 
Q 56.78125 27.484375 56.78125 20.515625 
Q 56.78125 9.90625 50.3125 4.234375 
Q 43.84375 -1.421875 31.78125 -1.421875 
Q 19.734375 -1.421875 13.25 4.234375 
Q 6.78125 9.90625 6.78125 20.515625 
Q 6.78125 27.484375 10.78125 32.3125 
Q 14.796875 37.15625 21.921875 38.8125 
M 18.3125 54.390625 
Q 18.3125 48.734375 21.84375 45.5625 
Q 25.390625 42.390625 31.78125 42.390625 
Q 38.140625 42.390625 41.71875 45.5625 
Q 45.3125 48.734375 45.3125 54.390625 
Q 45.3125 60.0625 41.71875 63.234375 
Q 38.140625 66.40625 31.78125 66.40625 
Q 25.390625 66.40625 21.84375 63.234375 
Q 18.3125 60.0625 18.3125 54.390625 
" id="BitstreamVeraSans-Roman-38"/>
      </defs>
      <g transform="translate(420.575982143 374.2125)scale(0.14 -0.14)">
       <use xlink:href="#BitstreamVeraSans-Roman-38"/>
      </g>
     </g>
    </g>
    <g id="xtick_6">
     <g id="line2d_23">
      <g>
       <use style="stroke:#000000;stroke-width:0.5;" x="510.058303571" xlink:href="#m228523b0d5" y="359.5746875"/>
      </g>
     </g>
     <g id="line2d_24">
      <g>
       <use style="stroke:#000000;stroke-width:0.5;" x="510.058303571" xlink:href="#me4662acd6d" y="13.9746875"/>
      </g>
     </g>
     <g id="text_6">
      <!-- 10 -->
      <defs>
       <path d="M 12.40625 8.296875 
L 28.515625 8.296875 
L 28.515625 63.921875 
L 10.984375 60.40625 
L 10.984375 69.390625 
L 28.421875 72.90625 
L 38.28125 72.90625 
L 38.28125 8.296875 
L 54.390625 8.296875 
L 54.390625 0 
L 12.40625 0 
z
" id="BitstreamVeraSans-Roman-31"/>
      </defs>
      <g transform="translate(501.150803571 374.2125)scale(0.14 -0.14)">
       <use xlink:href="#BitstreamVeraSans-Roman-31"/>
       <use x="63.623046875" xlink:href="#BitstreamVeraSans-Roman-30"/>
      </g>
     </g>
    </g>
    <g id="text_7">
     <!-- Number of cuts -->
     <defs>
      <path id="BitstreamVeraSans-Roman-20"/>
      <path d="M 9.8125 72.90625 
L 23.09375 72.90625 
L 55.421875 11.921875 
L 55.421875 72.90625 
L 64.984375 72.90625 
L 64.984375 0 
L 51.703125 0 
L 19.390625 60.984375 
L 19.390625 0 
L 9.8125 0 
z
" id="BitstreamVeraSans-Roman-4e"/>
      <path d="M 37.109375 75.984375 
L 37.109375 68.5 
L 28.515625 68.5 
Q 23.6875 68.5 21.796875 66.546875 
Q 19.921875 64.59375 19.921875 59.515625 
L 19.921875 54.6875 
L 34.71875 54.6875 
L 34.71875 47.703125 
L 19.921875 47.703125 
L 19.921875 0 
L 10.890625 0 
L 10.890625 47.703125 
L 2.296875 47.703125 
L 2.296875 54.6875 
L 10.890625 54.6875 
L 10.890625 58.5 
Q 10.890625 67.625 15.140625 71.796875 
Q 19.390625 75.984375 28.609375 75.984375 
z
" id="BitstreamVeraSans-Roman-66"/>
      <path d="M 52 44.1875 
Q 55.375 50.25 60.0625 53.125 
Q 64.75 56 71.09375 56 
Q 79.640625 56 84.28125 50.015625 
Q 88.921875 44.046875 88.921875 33.015625 
L 88.921875 0 
L 79.890625 0 
L 79.890625 32.71875 
Q 79.890625 40.578125 77.09375 44.375 
Q 74.3125 48.1875 68.609375 48.1875 
Q 61.625 48.1875 57.5625 43.546875 
Q 53.515625 38.921875 53.515625 30.90625 
L 53.515625 0 
L 44.484375 0 
L 44.484375 32.71875 
Q 44.484375 40.625 41.703125 44.40625 
Q 38.921875 48.1875 33.109375 48.1875 
Q 26.21875 48.1875 22.15625 43.53125 
Q 18.109375 38.875 18.109375 30.90625 
L 18.109375 0 
L 9.078125 0 
L 9.078125 54.6875 
L 18.109375 54.6875 
L 18.109375 46.1875 
Q 21.1875 51.21875 25.484375 53.609375 
Q 29.78125 56 35.6875 56 
Q 41.65625 56 45.828125 52.96875 
Q 50 49.953125 52 44.1875 
" id="BitstreamVeraSans-Roman-6d"/>
      <path d="M 30.609375 48.390625 
Q 23.390625 48.390625 19.1875 42.75 
Q 14.984375 37.109375 14.984375 27.296875 
Q 14.984375 17.484375 19.15625 11.84375 
Q 23.34375 6.203125 30.609375 6.203125 
Q 37.796875 6.203125 41.984375 11.859375 
Q 46.1875 17.53125 46.1875 27.296875 
Q 46.1875 37.015625 41.984375 42.703125 
Q 37.796875 48.390625 30.609375 48.390625 
M 30.609375 56 
Q 42.328125 56 49.015625 48.375 
Q 55.71875 40.765625 55.71875 27.296875 
Q 55.71875 13.875 49.015625 6.21875 
Q 42.328125 -1.421875 30.609375 -1.421875 
Q 18.84375 -1.421875 12.171875 6.21875 
Q 5.515625 13.875 5.515625 27.296875 
Q 5.515625 40.765625 12.171875 48.375 
Q 18.84375 56 30.609375 56 
" id="BitstreamVeraSans-Roman-6f"/>
      <path d="M 56.203125 29.59375 
L 56.203125 25.203125 
L 14.890625 25.203125 
Q 15.484375 15.921875 20.484375 11.0625 
Q 25.484375 6.203125 34.421875 6.203125 
Q 39.59375 6.203125 44.453125 7.46875 
Q 49.3125 8.734375 54.109375 11.28125 
L 54.109375 2.78125 
Q 49.265625 0.734375 44.1875 -0.34375 
Q 39.109375 -1.421875 33.890625 -1.421875 
Q 20.796875 -1.421875 13.15625 6.1875 
Q 5.515625 13.8125 5.515625 26.8125 
Q 5.515625 40.234375 12.765625 48.109375 
Q 20.015625 56 32.328125 56 
Q 43.359375 56 49.78125 48.890625 
Q 56.203125 41.796875 56.203125 29.59375 
M 47.21875 32.234375 
Q 47.125 39.59375 43.09375 43.984375 
Q 39.0625 48.390625 32.421875 48.390625 
Q 24.90625 48.390625 20.390625 44.140625 
Q 15.875 39.890625 15.1875 32.171875 
z
" id="BitstreamVeraSans-Roman-65"/>
      <path d="M 18.3125 70.21875 
L 18.3125 54.6875 
L 36.8125 54.6875 
L 36.8125 47.703125 
L 18.3125 47.703125 
L 18.3125 18.015625 
Q 18.3125 11.328125 20.140625 9.421875 
Q 21.96875 7.515625 27.59375 7.515625 
L 36.8125 7.515625 
L 36.8125 0 
L 27.59375 0 
Q 17.1875 0 13.234375 3.875 
Q 9.28125 7.765625 9.28125 18.015625 
L 9.28125 47.703125 
L 2.6875 47.703125 
L 2.6875 54.6875 
L 9.28125 54.6875 
L 9.28125 70.21875 
z
" id="BitstreamVeraSans-Roman-74"/>
      <path d="M 8.5 21.578125 
L 8.5 54.6875 
L 17.484375 54.6875 
L 17.484375 21.921875 
Q 17.484375 14.15625 20.5 10.265625 
Q 23.53125 6.390625 29.59375 6.390625 
Q 36.859375 6.390625 41.078125 11.03125 
Q 45.3125 15.671875 45.3125 23.6875 
L 45.3125 54.6875 
L 54.296875 54.6875 
L 54.296875 0 
L 45.3125 0 
L 45.3125 8.40625 
Q 42.046875 3.421875 37.71875 1 
Q 33.40625 -1.421875 27.6875 -1.421875 
Q 18.265625 -1.421875 13.375 4.4375 
Q 8.5 10.296875 8.5 21.578125 
" id="BitstreamVeraSans-Roman-75"/>
      <path d="M 41.109375 46.296875 
Q 39.59375 47.171875 37.8125 47.578125 
Q 36.03125 48 33.890625 48 
Q 26.265625 48 22.1875 43.046875 
Q 18.109375 38.09375 18.109375 28.8125 
L 18.109375 0 
L 9.078125 0 
L 9.078125 54.6875 
L 18.109375 54.6875 
L 18.109375 46.1875 
Q 20.953125 51.171875 25.484375 53.578125 
Q 30.03125 56 36.53125 56 
Q 37.453125 56 38.578125 55.875 
Q 39.703125 55.765625 41.0625 55.515625 
z
" id="BitstreamVeraSans-Roman-72"/>
      <path d="M 44.28125 53.078125 
L 44.28125 44.578125 
Q 40.484375 46.53125 36.375 47.5 
Q 32.28125 48.484375 27.875 48.484375 
Q 21.1875 48.484375 17.84375 46.4375 
Q 14.5 44.390625 14.5 40.28125 
Q 14.5 37.15625 16.890625 35.375 
Q 19.28125 33.59375 26.515625 31.984375 
L 29.59375 31.296875 
Q 39.15625 29.25 43.1875 25.515625 
Q 47.21875 21.78125 47.21875 15.09375 
Q 47.21875 7.46875 41.1875 3.015625 
Q 35.15625 -1.421875 24.609375 -1.421875 
Q 20.21875 -1.421875 15.453125 -0.5625 
Q 10.6875 0.296875 5.421875 2 
L 5.421875 11.28125 
Q 10.40625 8.6875 15.234375 7.390625 
Q 20.0625 6.109375 24.8125 6.109375 
Q 31.15625 6.109375 34.5625 8.28125 
Q 37.984375 10.453125 37.984375 14.40625 
Q 37.984375 18.0625 35.515625 20.015625 
Q 33.0625 21.96875 24.703125 23.78125 
L 21.578125 24.515625 
Q 13.234375 26.265625 9.515625 29.90625 
Q 5.8125 33.546875 5.8125 39.890625 
Q 5.8125 47.609375 11.28125 51.796875 
Q 16.75 56 26.8125 56 
Q 31.78125 56 36.171875 55.265625 
Q 40.578125 54.546875 44.28125 53.078125 
" id="BitstreamVeraSans-Roman-73"/>
      <path d="M 48.78125 52.59375 
L 48.78125 44.1875 
Q 44.96875 46.296875 41.140625 47.34375 
Q 37.3125 48.390625 33.40625 48.390625 
Q 24.65625 48.390625 19.8125 42.84375 
Q 14.984375 37.3125 14.984375 27.296875 
Q 14.984375 17.28125 19.8125 11.734375 
Q 24.65625 6.203125 33.40625 6.203125 
Q 37.3125 6.203125 41.140625 7.25 
Q 44.96875 8.296875 48.78125 10.40625 
L 48.78125 2.09375 
Q 45.015625 0.34375 40.984375 -0.53125 
Q 36.96875 -1.421875 32.421875 -1.421875 
Q 20.0625 -1.421875 12.78125 6.34375 
Q 5.515625 14.109375 5.515625 27.296875 
Q 5.515625 40.671875 12.859375 48.328125 
Q 20.21875 56 33.015625 56 
Q 37.15625 56 41.109375 55.140625 
Q 45.0625 54.296875 48.78125 52.59375 
" id="BitstreamVeraSans-Roman-63"/>
      <path d="M 48.6875 27.296875 
Q 48.6875 37.203125 44.609375 42.84375 
Q 40.53125 48.484375 33.40625 48.484375 
Q 26.265625 48.484375 22.1875 42.84375 
Q 18.109375 37.203125 18.109375 27.296875 
Q 18.109375 17.390625 22.1875 11.75 
Q 26.265625 6.109375 33.40625 6.109375 
Q 40.53125 6.109375 44.609375 11.75 
Q 48.6875 17.390625 48.6875 27.296875 
M 18.109375 46.390625 
Q 20.953125 51.265625 25.265625 53.625 
Q 29.59375 56 35.59375 56 
Q 45.5625 56 51.78125 48.09375 
Q 58.015625 40.1875 58.015625 27.296875 
Q 58.015625 14.40625 51.78125 6.484375 
Q 45.5625 -1.421875 35.59375 -1.421875 
Q 29.59375 -1.421875 25.265625 0.953125 
Q 20.953125 3.328125 18.109375 8.203125 
L 18.109375 0 
L 9.078125 0 
L 9.078125 75.984375 
L 18.109375 75.984375 
z
" id="BitstreamVeraSans-Roman-62"/>
     </defs>
     <g transform="translate(243.49390625 392.761875)scale(0.14 -0.14)">
      <use xlink:href="#BitstreamVeraSans-Roman-4e"/>
      <use x="74.8046875" xlink:href="#BitstreamVeraSans-Roman-75"/>
      <use x="138.18359375" xlink:href="#BitstreamVeraSans-Roman-6d"/>
      <use x="235.595703125" xlink:href="#BitstreamVeraSans-Roman-62"/>
      <use x="299.072265625" xlink:href="#BitstreamVeraSans-Roman-65"/>
      <use x="360.595703125" xlink:href="#BitstreamVeraSans-Roman-72"/>
      <use x="401.708984375" xlink:href="#BitstreamVeraSans-Roman-20"/>
      <use x="433.49609375" xlink:href="#BitstreamVeraSans-Roman-6f"/>
      <use x="494.677734375" xlink:href="#BitstreamVeraSans-Roman-66"/>
      <use x="529.8828125" xlink:href="#BitstreamVeraSans-Roman-20"/>
      <use x="561.669921875" xlink:href="#BitstreamVeraSans-Roman-63"/>
      <use x="616.650390625" xlink:href="#BitstreamVeraSans-Roman-75"/>
      <use x="680.029296875" xlink:href="#BitstreamVeraSans-Roman-74"/>
      <use x="719.23828125" xlink:href="#BitstreamVeraSans-Roman-73"/>
     </g>
    </g>
   </g>
   <g id="matplotlib.axis_2">
    <g id="ytick_1">
     <g id="line2d_25">
      <defs>
       <path d="M 0 0 
L 4 0 
" id="mf29e4667e1" style="stroke:#000000;stroke-width:0.5;"/>
      </defs>
      <g>
       <use style="stroke:#000000;stroke-width:0.5;" x="74.286875" xlink:href="#mf29e4667e1" y="359.5746875"/>
      </g>
     </g>
     <g id="line2d_26">
      <defs>
       <path d="M 0 0 
L -4 0 
" id="m716a2e75ad" style="stroke:#000000;stroke-width:0.5;"/>
      </defs>
      <g>
       <use style="stroke:#000000;stroke-width:0.5;" x="520.686875" xlink:href="#m716a2e75ad" y="359.5746875"/>
      </g>
     </g>
     <g id="text_8">
      <!-- 0 -->
      <g transform="translate(61.379375 363.4378125)scale(0.14 -0.14)">
       <use xlink:href="#BitstreamVeraSans-Roman-30"/>
      </g>
     </g>
    </g>
    <g id="ytick_2">
     <g id="line2d_27">
      <g>
       <use style="stroke:#000000;stroke-width:0.5;" x="74.286875" xlink:href="#mf29e4667e1" y="310.203258929"/>
      </g>
     </g>
     <g id="line2d_28">
      <g>
       <use style="stroke:#000000;stroke-width:0.5;" x="520.686875" xlink:href="#m716a2e75ad" y="310.203258929"/>
      </g>
     </g>
     <g id="text_9">
      <!-- 2000 -->
      <g transform="translate(34.656875 314.066383929)scale(0.14 -0.14)">
       <use xlink:href="#BitstreamVeraSans-Roman-32"/>
       <use x="63.623046875" xlink:href="#BitstreamVeraSans-Roman-30"/>
       <use x="127.24609375" xlink:href="#BitstreamVeraSans-Roman-30"/>
       <use x="190.869140625" xlink:href="#BitstreamVeraSans-Roman-30"/>
      </g>
     </g>
    </g>
    <g id="ytick_3">
     <g id="line2d_29">
      <g>
       <use style="stroke:#000000;stroke-width:0.5;" x="74.286875" xlink:href="#mf29e4667e1" y="260.831830357"/>
      </g>
     </g>
     <g id="line2d_30">
      <g>
       <use style="stroke:#000000;stroke-width:0.5;" x="520.686875" xlink:href="#m716a2e75ad" y="260.831830357"/>
      </g>
     </g>
     <g id="text_10">
      <!-- 4000 -->
      <g transform="translate(34.656875 264.694955357)scale(0.14 -0.14)">
       <use xlink:href="#BitstreamVeraSans-Roman-34"/>
       <use x="63.623046875" xlink:href="#BitstreamVeraSans-Roman-30"/>
       <use x="127.24609375" xlink:href="#BitstreamVeraSans-Roman-30"/>
       <use x="190.869140625" xlink:href="#BitstreamVeraSans-Roman-30"/>
      </g>
     </g>
    </g>
    <g id="ytick_4">
     <g id="line2d_31">
      <g>
       <use style="stroke:#000000;stroke-width:0.5;" x="74.286875" xlink:href="#mf29e4667e1" y="211.460401786"/>
      </g>
     </g>
     <g id="line2d_32">
      <g>
       <use style="stroke:#000000;stroke-width:0.5;" x="520.686875" xlink:href="#m716a2e75ad" y="211.460401786"/>
      </g>
     </g>
     <g id="text_11">
      <!-- 6000 -->
      <g transform="translate(34.656875 215.323526786)scale(0.14 -0.14)">
       <use xlink:href="#BitstreamVeraSans-Roman-36"/>
       <use x="63.623046875" xlink:href="#BitstreamVeraSans-Roman-30"/>
       <use x="127.24609375" xlink:href="#BitstreamVeraSans-Roman-30"/>
       <use x="190.869140625" xlink:href="#BitstreamVeraSans-Roman-30"/>
      </g>
     </g>
    </g>
    <g id="ytick_5">
     <g id="line2d_33">
      <g>
       <use style="stroke:#000000;stroke-width:0.5;" x="74.286875" xlink:href="#mf29e4667e1" y="162.088973214"/>
      </g>
     </g>
     <g id="line2d_34">
      <g>
       <use style="stroke:#000000;stroke-width:0.5;" x="520.686875" xlink:href="#m716a2e75ad" y="162.088973214"/>
      </g>
     </g>
     <g id="text_12">
      <!-- 8000 -->
      <g transform="translate(34.656875 165.952098214)scale(0.14 -0.14)">
       <use xlink:href="#BitstreamVeraSans-Roman-38"/>
       <use x="63.623046875" xlink:href="#BitstreamVeraSans-Roman-30"/>
       <use x="127.24609375" xlink:href="#BitstreamVeraSans-Roman-30"/>
       <use x="190.869140625" xlink:href="#BitstreamVeraSans-Roman-30"/>
      </g>
     </g>
    </g>
    <g id="ytick_6">
     <g id="line2d_35">
      <g>
       <use style="stroke:#000000;stroke-width:0.5;" x="74.286875" xlink:href="#mf29e4667e1" y="112.717544643"/>
      </g>
     </g>
     <g id="line2d_36">
      <g>
       <use style="stroke:#000000;stroke-width:0.5;" x="520.686875" xlink:href="#m716a2e75ad" y="112.717544643"/>
      </g>
     </g>
     <g id="text_13">
      <!-- 10000 -->
      <g transform="translate(25.749375 116.580669643)scale(0.14 -0.14)">
       <use xlink:href="#BitstreamVeraSans-Roman-31"/>
       <use x="63.623046875" xlink:href="#BitstreamVeraSans-Roman-30"/>
       <use x="127.24609375" xlink:href="#BitstreamVeraSans-Roman-30"/>
       <use x="190.869140625" xlink:href="#BitstreamVeraSans-Roman-30"/>
       <use x="254.4921875" xlink:href="#BitstreamVeraSans-Roman-30"/>
      </g>
     </g>
    </g>
    <g id="ytick_7">
     <g id="line2d_37">
      <g>
       <use style="stroke:#000000;stroke-width:0.5;" x="74.286875" xlink:href="#mf29e4667e1" y="63.3461160714"/>
      </g>
     </g>
     <g id="line2d_38">
      <g>
       <use style="stroke:#000000;stroke-width:0.5;" x="520.686875" xlink:href="#m716a2e75ad" y="63.3461160714"/>
      </g>
     </g>
     <g id="text_14">
      <!-- 12000 -->
      <g transform="translate(25.749375 67.2092410714)scale(0.14 -0.14)">
       <use xlink:href="#BitstreamVeraSans-Roman-31"/>
       <use x="63.623046875" xlink:href="#BitstreamVeraSans-Roman-32"/>
       <use x="127.24609375" xlink:href="#BitstreamVeraSans-Roman-30"/>
       <use x="190.869140625" xlink:href="#BitstreamVeraSans-Roman-30"/>
       <use x="254.4921875" xlink:href="#BitstreamVeraSans-Roman-30"/>
      </g>
     </g>
    </g>
    <g id="ytick_8">
     <g id="line2d_39">
      <g>
       <use style="stroke:#000000;stroke-width:0.5;" x="74.286875" xlink:href="#mf29e4667e1" y="13.9746875"/>
      </g>
     </g>
     <g id="line2d_40">
      <g>
       <use style="stroke:#000000;stroke-width:0.5;" x="520.686875" xlink:href="#m716a2e75ad" y="13.9746875"/>
      </g>
     </g>
     <g id="text_15">
      <!-- 14000 -->
      <g transform="translate(25.749375 17.8378125)scale(0.14 -0.14)">
       <use xlink:href="#BitstreamVeraSans-Roman-31"/>
       <use x="63.623046875" xlink:href="#BitstreamVeraSans-Roman-34"/>
       <use x="127.24609375" xlink:href="#BitstreamVeraSans-Roman-30"/>
       <use x="190.869140625" xlink:href="#BitstreamVeraSans-Roman-30"/>
       <use x="254.4921875" xlink:href="#BitstreamVeraSans-Roman-30"/>
      </g>
     </g>
    </g>
    <g id="text_16">
     <!-- Number of nodes -->
     <defs>
      <path d="M 54.890625 33.015625 
L 54.890625 0 
L 45.90625 0 
L 45.90625 32.71875 
Q 45.90625 40.484375 42.875 44.328125 
Q 39.84375 48.1875 33.796875 48.1875 
Q 26.515625 48.1875 22.3125 43.546875 
Q 18.109375 38.921875 18.109375 30.90625 
L 18.109375 0 
L 9.078125 0 
L 9.078125 54.6875 
L 18.109375 54.6875 
L 18.109375 46.1875 
Q 21.34375 51.125 25.703125 53.5625 
Q 30.078125 56 35.796875 56 
Q 45.21875 56 50.046875 50.171875 
Q 54.890625 44.34375 54.890625 33.015625 
" id="BitstreamVeraSans-Roman-6e"/>
      <path d="M 45.40625 46.390625 
L 45.40625 75.984375 
L 54.390625 75.984375 
L 54.390625 0 
L 45.40625 0 
L 45.40625 8.203125 
Q 42.578125 3.328125 38.25 0.953125 
Q 33.9375 -1.421875 27.875 -1.421875 
Q 17.96875 -1.421875 11.734375 6.484375 
Q 5.515625 14.40625 5.515625 27.296875 
Q 5.515625 40.1875 11.734375 48.09375 
Q 17.96875 56 27.875 56 
Q 33.9375 56 38.25 53.625 
Q 42.578125 51.265625 45.40625 46.390625 
M 14.796875 27.296875 
Q 14.796875 17.390625 18.875 11.75 
Q 22.953125 6.109375 30.078125 6.109375 
Q 37.203125 6.109375 41.296875 11.75 
Q 45.40625 17.390625 45.40625 27.296875 
Q 45.40625 37.203125 41.296875 42.84375 
Q 37.203125 48.484375 30.078125 48.484375 
Q 22.953125 48.484375 18.875 42.84375 
Q 14.796875 37.203125 14.796875 27.296875 
" id="BitstreamVeraSans-Roman-64"/>
     </defs>
     <g transform="translate(17.8378125 247.20875)rotate(-90.0)scale(0.14 -0.14)">
      <use xlink:href="#BitstreamVeraSans-Roman-4e"/>
      <use x="74.8046875" xlink:href="#BitstreamVeraSans-Roman-75"/>
      <use x="138.18359375" xlink:href="#BitstreamVeraSans-Roman-6d"/>
      <use x="235.595703125" xlink:href="#BitstreamVeraSans-Roman-62"/>
      <use x="299.072265625" xlink:href="#BitstreamVeraSans-Roman-65"/>
      <use x="360.595703125" xlink:href="#BitstreamVeraSans-Roman-72"/>
      <use x="401.708984375" xlink:href="#BitstreamVeraSans-Roman-20"/>
      <use x="433.49609375" xlink:href="#BitstreamVeraSans-Roman-6f"/>
      <use x="494.677734375" xlink:href="#BitstreamVeraSans-Roman-66"/>
      <use x="529.8828125" xlink:href="#BitstreamVeraSans-Roman-20"/>
      <use x="561.669921875" xlink:href="#BitstreamVeraSans-Roman-6e"/>
      <use x="625.048828125" xlink:href="#BitstreamVeraSans-Roman-6f"/>
      <use x="686.23046875" xlink:href="#BitstreamVeraSans-Roman-64"/>
      <use x="749.70703125" xlink:href="#BitstreamVeraSans-Roman-65"/>
      <use x="811.23046875" xlink:href="#BitstreamVeraSans-Roman-73"/>
     </g>
    </g>
   </g>
   <g id="legend_1">
    <g id="patch_7">
     <path d="M 8.698438 481.101688 
L 586.275312 481.101688 
L 586.275312 407.046688 
L 8.698438 407.046688 
z
" style="fill:#ffffff;stroke:#000000;stroke-linejoin:miter;"/>
    </g>
    <g id="line2d_41">
     <path d="M 17.098438 416.764813 
L 33.898438 416.764813 
" style="fill:none;stroke:#000000;stroke-dasharray:6.000000,6.000000;stroke-dashoffset:0.0;stroke-width:1.5;"/>
    </g>
    <g id="line2d_42">
     <g>
      <use style="stroke:#000000;stroke-linejoin:bevel;stroke-width:0.5;" x="17.0984375" xlink:href="#mc5dfb332f1" y="416.7648125"/>
      <use style="stroke:#000000;stroke-linejoin:bevel;stroke-width:0.5;" x="33.8984375" xlink:href="#mc5dfb332f1" y="416.7648125"/>
     </g>
    </g>
    <g id="text_17">
     <!-- Lagrangian, Width 100 -->
     <defs>
      <path d="M 9.8125 72.90625 
L 19.671875 72.90625 
L 19.671875 8.296875 
L 55.171875 8.296875 
L 55.171875 0 
L 9.8125 0 
z
" id="BitstreamVeraSans-Roman-4c"/>
      <path d="M 11.71875 12.40625 
L 22.015625 12.40625 
L 22.015625 4 
L 14.015625 -11.625 
L 7.71875 -11.625 
L 11.71875 4 
z
" id="BitstreamVeraSans-Roman-2c"/>
      <path d="M 9.421875 54.6875 
L 18.40625 54.6875 
L 18.40625 0 
L 9.421875 0 
z
M 9.421875 75.984375 
L 18.40625 75.984375 
L 18.40625 64.59375 
L 9.421875 64.59375 
z
" id="BitstreamVeraSans-Roman-69"/>
      <path d="M 54.890625 33.015625 
L 54.890625 0 
L 45.90625 0 
L 45.90625 32.71875 
Q 45.90625 40.484375 42.875 44.328125 
Q 39.84375 48.1875 33.796875 48.1875 
Q 26.515625 48.1875 22.3125 43.546875 
Q 18.109375 38.921875 18.109375 30.90625 
L 18.109375 0 
L 9.078125 0 
L 9.078125 75.984375 
L 18.109375 75.984375 
L 18.109375 46.1875 
Q 21.34375 51.125 25.703125 53.5625 
Q 30.078125 56 35.796875 56 
Q 45.21875 56 50.046875 50.171875 
Q 54.890625 44.34375 54.890625 33.015625 
" id="BitstreamVeraSans-Roman-68"/>
      <path d="M 3.328125 72.90625 
L 13.28125 72.90625 
L 28.609375 11.28125 
L 43.890625 72.90625 
L 54.984375 72.90625 
L 70.3125 11.28125 
L 85.59375 72.90625 
L 95.609375 72.90625 
L 77.296875 0 
L 64.890625 0 
L 49.515625 63.28125 
L 33.984375 0 
L 21.578125 0 
z
" id="BitstreamVeraSans-Roman-57"/>
      <path d="M 45.40625 27.984375 
Q 45.40625 37.75 41.375 43.109375 
Q 37.359375 48.484375 30.078125 48.484375 
Q 22.859375 48.484375 18.828125 43.109375 
Q 14.796875 37.75 14.796875 27.984375 
Q 14.796875 18.265625 18.828125 12.890625 
Q 22.859375 7.515625 30.078125 7.515625 
Q 37.359375 7.515625 41.375 12.890625 
Q 45.40625 18.265625 45.40625 27.984375 
M 54.390625 6.78125 
Q 54.390625 -7.171875 48.1875 -13.984375 
Q 42 -20.796875 29.203125 -20.796875 
Q 24.46875 -20.796875 20.265625 -20.09375 
Q 16.0625 -19.390625 12.109375 -17.921875 
L 12.109375 -9.1875 
Q 16.0625 -11.328125 19.921875 -12.34375 
Q 23.78125 -13.375 27.78125 -13.375 
Q 36.625 -13.375 41.015625 -8.765625 
Q 45.40625 -4.15625 45.40625 5.171875 
L 45.40625 9.625 
Q 42.625 4.78125 38.28125 2.390625 
Q 33.9375 0 27.875 0 
Q 17.828125 0 11.671875 7.65625 
Q 5.515625 15.328125 5.515625 27.984375 
Q 5.515625 40.671875 11.671875 48.328125 
Q 17.828125 56 27.875 56 
Q 33.9375 56 38.28125 53.609375 
Q 42.625 51.21875 45.40625 46.390625 
L 45.40625 54.6875 
L 54.390625 54.6875 
z
" id="BitstreamVeraSans-Roman-67"/>
      <path d="M 34.28125 27.484375 
Q 23.390625 27.484375 19.1875 25 
Q 14.984375 22.515625 14.984375 16.5 
Q 14.984375 11.71875 18.140625 8.90625 
Q 21.296875 6.109375 26.703125 6.109375 
Q 34.1875 6.109375 38.703125 11.40625 
Q 43.21875 16.703125 43.21875 25.484375 
L 43.21875 27.484375 
z
M 52.203125 31.203125 
L 52.203125 0 
L 43.21875 0 
L 43.21875 8.296875 
Q 40.140625 3.328125 35.546875 0.953125 
Q 30.953125 -1.421875 24.3125 -1.421875 
Q 15.921875 -1.421875 10.953125 3.296875 
Q 6 8.015625 6 15.921875 
Q 6 25.140625 12.171875 29.828125 
Q 18.359375 34.515625 30.609375 34.515625 
L 43.21875 34.515625 
L 43.21875 35.40625 
Q 43.21875 41.609375 39.140625 45 
Q 35.0625 48.390625 27.6875 48.390625 
Q 23 48.390625 18.546875 47.265625 
Q 14.109375 46.140625 10.015625 43.890625 
L 10.015625 52.203125 
Q 14.9375 54.109375 19.578125 55.046875 
Q 24.21875 56 28.609375 56 
Q 40.484375 56 46.34375 49.84375 
Q 52.203125 43.703125 52.203125 31.203125 
" id="BitstreamVeraSans-Roman-61"/>
     </defs>
     <g transform="translate(47.0984375 420.9648125)scale(0.12 -0.12)">
      <use xlink:href="#BitstreamVeraSans-Roman-4c"/>
      <use x="55.712890625" xlink:href="#BitstreamVeraSans-Roman-61"/>
      <use x="116.9921875" xlink:href="#BitstreamVeraSans-Roman-67"/>
      <use x="180.46875" xlink:href="#BitstreamVeraSans-Roman-72"/>
      <use x="221.58203125" xlink:href="#BitstreamVeraSans-Roman-61"/>
      <use x="282.861328125" xlink:href="#BitstreamVeraSans-Roman-6e"/>
      <use x="346.240234375" xlink:href="#BitstreamVeraSans-Roman-67"/>
      <use x="409.716796875" xlink:href="#BitstreamVeraSans-Roman-69"/>
      <use x="437.5" xlink:href="#BitstreamVeraSans-Roman-61"/>
      <use x="498.779296875" xlink:href="#BitstreamVeraSans-Roman-6e"/>
      <use x="562.158203125" xlink:href="#BitstreamVeraSans-Roman-2c"/>
      <use x="593.9453125" xlink:href="#BitstreamVeraSans-Roman-20"/>
      <use x="625.732421875" xlink:href="#BitstreamVeraSans-Roman-57"/>
      <use x="724.578125" xlink:href="#BitstreamVeraSans-Roman-69"/>
      <use x="752.361328125" xlink:href="#BitstreamVeraSans-Roman-64"/>
      <use x="815.837890625" xlink:href="#BitstreamVeraSans-Roman-74"/>
      <use x="855.046875" xlink:href="#BitstreamVeraSans-Roman-68"/>
      <use x="918.42578125" xlink:href="#BitstreamVeraSans-Roman-20"/>
      <use x="950.212890625" xlink:href="#BitstreamVeraSans-Roman-31"/>
      <use x="1013.8359375" xlink:href="#BitstreamVeraSans-Roman-30"/>
      <use x="1077.45898438" xlink:href="#BitstreamVeraSans-Roman-30"/>
     </g>
    </g>
    <g id="line2d_43">
     <path d="M 17.098438 434.378563 
L 33.898438 434.378563 
" style="fill:none;stroke:#000000;stroke-linecap:round;stroke-width:1.5;"/>
    </g>
    <g id="line2d_44">
     <g>
      <use style="stroke:#000000;stroke-linejoin:bevel;stroke-width:0.5;" x="17.0984375" xlink:href="#mc5dfb332f1" y="434.3785625"/>
      <use style="stroke:#000000;stroke-linejoin:bevel;stroke-width:0.5;" x="33.8984375" xlink:href="#mc5dfb332f1" y="434.3785625"/>
     </g>
    </g>
    <g id="text_18">
     <!-- Target, Width 100 -->
     <defs>
      <path d="M -0.296875 72.90625 
L 61.375 72.90625 
L 61.375 64.59375 
L 35.5 64.59375 
L 35.5 0 
L 25.59375 0 
L 25.59375 64.59375 
L -0.296875 64.59375 
z
" id="BitstreamVeraSans-Roman-54"/>
     </defs>
     <g transform="translate(47.0984375 438.5785625)scale(0.12 -0.12)">
      <use xlink:href="#BitstreamVeraSans-Roman-54"/>
      <use x="60.833984375" xlink:href="#BitstreamVeraSans-Roman-61"/>
      <use x="122.11328125" xlink:href="#BitstreamVeraSans-Roman-72"/>
      <use x="163.2109375" xlink:href="#BitstreamVeraSans-Roman-67"/>
      <use x="226.6875" xlink:href="#BitstreamVeraSans-Roman-65"/>
      <use x="288.2109375" xlink:href="#BitstreamVeraSans-Roman-74"/>
      <use x="327.419921875" xlink:href="#BitstreamVeraSans-Roman-2c"/>
      <use x="359.20703125" xlink:href="#BitstreamVeraSans-Roman-20"/>
      <use x="390.994140625" xlink:href="#BitstreamVeraSans-Roman-57"/>
      <use x="489.83984375" xlink:href="#BitstreamVeraSans-Roman-69"/>
      <use x="517.623046875" xlink:href="#BitstreamVeraSans-Roman-64"/>
      <use x="581.099609375" xlink:href="#BitstreamVeraSans-Roman-74"/>
      <use x="620.30859375" xlink:href="#BitstreamVeraSans-Roman-68"/>
      <use x="683.6875" xlink:href="#BitstreamVeraSans-Roman-20"/>
      <use x="715.474609375" xlink:href="#BitstreamVeraSans-Roman-31"/>
      <use x="779.09765625" xlink:href="#BitstreamVeraSans-Roman-30"/>
      <use x="842.720703125" xlink:href="#BitstreamVeraSans-Roman-30"/>
     </g>
    </g>
    <g id="line2d_45">
     <path d="M 17.098438 451.992313 
L 33.898438 451.992313 
" style="fill:none;stroke:#000000;stroke-dasharray:6.000000,6.000000;stroke-dashoffset:0.0;stroke-width:1.5;"/>
    </g>
    <g id="line2d_46">
     <g>
      <use style="stroke:#000000;stroke-linejoin:miter;stroke-width:0.5;" x="17.0984375" xlink:href="#m3d01c44790" y="451.9923125"/>
      <use style="stroke:#000000;stroke-linejoin:miter;stroke-width:0.5;" x="33.8984375" xlink:href="#m3d01c44790" y="451.9923125"/>
     </g>
    </g>
    <g id="text_19">
     <!-- Lagrangian, Width 200 -->
     <g transform="translate(47.0984375 456.1923125)scale(0.12 -0.12)">
      <use xlink:href="#BitstreamVeraSans-Roman-4c"/>
      <use x="55.712890625" xlink:href="#BitstreamVeraSans-Roman-61"/>
      <use x="116.9921875" xlink:href="#BitstreamVeraSans-Roman-67"/>
      <use x="180.46875" xlink:href="#BitstreamVeraSans-Roman-72"/>
      <use x="221.58203125" xlink:href="#BitstreamVeraSans-Roman-61"/>
      <use x="282.861328125" xlink:href="#BitstreamVeraSans-Roman-6e"/>
      <use x="346.240234375" xlink:href="#BitstreamVeraSans-Roman-67"/>
      <use x="409.716796875" xlink:href="#BitstreamVeraSans-Roman-69"/>
      <use x="437.5" xlink:href="#BitstreamVeraSans-Roman-61"/>
      <use x="498.779296875" xlink:href="#BitstreamVeraSans-Roman-6e"/>
      <use x="562.158203125" xlink:href="#BitstreamVeraSans-Roman-2c"/>
      <use x="593.9453125" xlink:href="#BitstreamVeraSans-Roman-20"/>
      <use x="625.732421875" xlink:href="#BitstreamVeraSans-Roman-57"/>
      <use x="724.578125" xlink:href="#BitstreamVeraSans-Roman-69"/>
      <use x="752.361328125" xlink:href="#BitstreamVeraSans-Roman-64"/>
      <use x="815.837890625" xlink:href="#BitstreamVeraSans-Roman-74"/>
      <use x="855.046875" xlink:href="#BitstreamVeraSans-Roman-68"/>
      <use x="918.42578125" xlink:href="#BitstreamVeraSans-Roman-20"/>
      <use x="950.212890625" xlink:href="#BitstreamVeraSans-Roman-32"/>
      <use x="1013.8359375" xlink:href="#BitstreamVeraSans-Roman-30"/>
      <use x="1077.45898438" xlink:href="#BitstreamVeraSans-Roman-30"/>
     </g>
    </g>
    <g id="line2d_47">
     <path d="M 17.098438 469.606063 
L 33.898438 469.606063 
" style="fill:none;stroke:#000000;stroke-linecap:round;stroke-width:1.5;"/>
    </g>
    <g id="line2d_48">
     <g>
      <use style="stroke:#000000;stroke-linejoin:miter;stroke-width:0.5;" x="17.0984375" xlink:href="#m3d01c44790" y="469.6060625"/>
      <use style="stroke:#000000;stroke-linejoin:miter;stroke-width:0.5;" x="33.8984375" xlink:href="#m3d01c44790" y="469.6060625"/>
     </g>
    </g>
    <g id="text_20">
     <!-- Target, Width 200 -->
     <g transform="translate(47.0984375 473.8060625)scale(0.12 -0.12)">
      <use xlink:href="#BitstreamVeraSans-Roman-54"/>
      <use x="60.833984375" xlink:href="#BitstreamVeraSans-Roman-61"/>
      <use x="122.11328125" xlink:href="#BitstreamVeraSans-Roman-72"/>
      <use x="163.2109375" xlink:href="#BitstreamVeraSans-Roman-67"/>
      <use x="226.6875" xlink:href="#BitstreamVeraSans-Roman-65"/>
      <use x="288.2109375" xlink:href="#BitstreamVeraSans-Roman-74"/>
      <use x="327.419921875" xlink:href="#BitstreamVeraSans-Roman-2c"/>
      <use x="359.20703125" xlink:href="#BitstreamVeraSans-Roman-20"/>
      <use x="390.994140625" xlink:href="#BitstreamVeraSans-Roman-57"/>
      <use x="489.83984375" xlink:href="#BitstreamVeraSans-Roman-69"/>
      <use x="517.623046875" xlink:href="#BitstreamVeraSans-Roman-64"/>
      <use x="581.099609375" xlink:href="#BitstreamVeraSans-Roman-74"/>
      <use x="620.30859375" xlink:href="#BitstreamVeraSans-Roman-68"/>
      <use x="683.6875" xlink:href="#BitstreamVeraSans-Roman-20"/>
      <use x="715.474609375" xlink:href="#BitstreamVeraSans-Roman-32"/>
      <use x="779.09765625" xlink:href="#BitstreamVeraSans-Roman-30"/>
      <use x="842.720703125" xlink:href="#BitstreamVeraSans-Roman-30"/>
     </g>
    </g>
    <g id="line2d_49">
     <path d="M 211.627813 416.764813 
L 228.427813 416.764813 
" style="fill:none;stroke:#000000;stroke-dasharray:6.000000,6.000000;stroke-dashoffset:0.0;stroke-width:1.5;"/>
    </g>
    <g id="line2d_50">
     <g>
      <use style="stroke:#000000;stroke-width:0.5;" x="211.6278125" xlink:href="#m8acc1a4666" y="416.7648125"/>
      <use style="stroke:#000000;stroke-width:0.5;" x="228.4278125" xlink:href="#m8acc1a4666" y="416.7648125"/>
     </g>
    </g>
    <g id="text_21">
     <!-- Lagrangian, Width 400 -->
     <g transform="translate(241.6278125 420.9648125)scale(0.12 -0.12)">
      <use xlink:href="#BitstreamVeraSans-Roman-4c"/>
      <use x="55.712890625" xlink:href="#BitstreamVeraSans-Roman-61"/>
      <use x="116.9921875" xlink:href="#BitstreamVeraSans-Roman-67"/>
      <use x="180.46875" xlink:href="#BitstreamVeraSans-Roman-72"/>
      <use x="221.58203125" xlink:href="#BitstreamVeraSans-Roman-61"/>
      <use x="282.861328125" xlink:href="#BitstreamVeraSans-Roman-6e"/>
      <use x="346.240234375" xlink:href="#BitstreamVeraSans-Roman-67"/>
      <use x="409.716796875" xlink:href="#BitstreamVeraSans-Roman-69"/>
      <use x="437.5" xlink:href="#BitstreamVeraSans-Roman-61"/>
      <use x="498.779296875" xlink:href="#BitstreamVeraSans-Roman-6e"/>
      <use x="562.158203125" xlink:href="#BitstreamVeraSans-Roman-2c"/>
      <use x="593.9453125" xlink:href="#BitstreamVeraSans-Roman-20"/>
      <use x="625.732421875" xlink:href="#BitstreamVeraSans-Roman-57"/>
      <use x="724.578125" xlink:href="#BitstreamVeraSans-Roman-69"/>
      <use x="752.361328125" xlink:href="#BitstreamVeraSans-Roman-64"/>
      <use x="815.837890625" xlink:href="#BitstreamVeraSans-Roman-74"/>
      <use x="855.046875" xlink:href="#BitstreamVeraSans-Roman-68"/>
      <use x="918.42578125" xlink:href="#BitstreamVeraSans-Roman-20"/>
      <use x="950.212890625" xlink:href="#BitstreamVeraSans-Roman-34"/>
      <use x="1013.8359375" xlink:href="#BitstreamVeraSans-Roman-30"/>
      <use x="1077.45898438" xlink:href="#BitstreamVeraSans-Roman-30"/>
     </g>
    </g>
    <g id="line2d_51">
     <path d="M 211.627813 434.378563 
L 228.427813 434.378563 
" style="fill:none;stroke:#000000;stroke-linecap:round;stroke-width:1.5;"/>
    </g>
    <g id="line2d_52">
     <g>
      <use style="stroke:#000000;stroke-width:0.5;" x="211.6278125" xlink:href="#m8acc1a4666" y="434.3785625"/>
      <use style="stroke:#000000;stroke-width:0.5;" x="228.4278125" xlink:href="#m8acc1a4666" y="434.3785625"/>
     </g>
    </g>
    <g id="text_22">
     <!-- Target, Width 400 -->
     <g transform="translate(241.6278125 438.5785625)scale(0.12 -0.12)">
      <use xlink:href="#BitstreamVeraSans-Roman-54"/>
      <use x="60.833984375" xlink:href="#BitstreamVeraSans-Roman-61"/>
      <use x="122.11328125" xlink:href="#BitstreamVeraSans-Roman-72"/>
      <use x="163.2109375" xlink:href="#BitstreamVeraSans-Roman-67"/>
      <use x="226.6875" xlink:href="#BitstreamVeraSans-Roman-65"/>
      <use x="288.2109375" xlink:href="#BitstreamVeraSans-Roman-74"/>
      <use x="327.419921875" xlink:href="#BitstreamVeraSans-Roman-2c"/>
      <use x="359.20703125" xlink:href="#BitstreamVeraSans-Roman-20"/>
      <use x="390.994140625" xlink:href="#BitstreamVeraSans-Roman-57"/>
      <use x="489.83984375" xlink:href="#BitstreamVeraSans-Roman-69"/>
      <use x="517.623046875" xlink:href="#BitstreamVeraSans-Roman-64"/>
      <use x="581.099609375" xlink:href="#BitstreamVeraSans-Roman-74"/>
      <use x="620.30859375" xlink:href="#BitstreamVeraSans-Roman-68"/>
      <use x="683.6875" xlink:href="#BitstreamVeraSans-Roman-20"/>
      <use x="715.474609375" xlink:href="#BitstreamVeraSans-Roman-34"/>
      <use x="779.09765625" xlink:href="#BitstreamVeraSans-Roman-30"/>
      <use x="842.720703125" xlink:href="#BitstreamVeraSans-Roman-30"/>
     </g>
    </g>
    <g id="line2d_53">
     <path d="M 211.627813 451.992313 
L 228.427813 451.992313 
" style="fill:none;stroke:#000000;stroke-dasharray:6.000000,6.000000;stroke-dashoffset:0.0;stroke-width:1.5;"/>
    </g>
    <g id="line2d_54">
     <g>
      <use style="stroke:#000000;stroke-linejoin:miter;stroke-width:0.5;" x="211.6278125" xlink:href="#m96fe63231d" y="451.9923125"/>
      <use style="stroke:#000000;stroke-linejoin:miter;stroke-width:0.5;" x="228.4278125" xlink:href="#m96fe63231d" y="451.9923125"/>
     </g>
    </g>
    <g id="text_23">
     <!-- Lagrangian, Width 600 -->
     <g transform="translate(241.6278125 456.1923125)scale(0.12 -0.12)">
      <use xlink:href="#BitstreamVeraSans-Roman-4c"/>
      <use x="55.712890625" xlink:href="#BitstreamVeraSans-Roman-61"/>
      <use x="116.9921875" xlink:href="#BitstreamVeraSans-Roman-67"/>
      <use x="180.46875" xlink:href="#BitstreamVeraSans-Roman-72"/>
      <use x="221.58203125" xlink:href="#BitstreamVeraSans-Roman-61"/>
      <use x="282.861328125" xlink:href="#BitstreamVeraSans-Roman-6e"/>
      <use x="346.240234375" xlink:href="#BitstreamVeraSans-Roman-67"/>
      <use x="409.716796875" xlink:href="#BitstreamVeraSans-Roman-69"/>
      <use x="437.5" xlink:href="#BitstreamVeraSans-Roman-61"/>
      <use x="498.779296875" xlink:href="#BitstreamVeraSans-Roman-6e"/>
      <use x="562.158203125" xlink:href="#BitstreamVeraSans-Roman-2c"/>
      <use x="593.9453125" xlink:href="#BitstreamVeraSans-Roman-20"/>
      <use x="625.732421875" xlink:href="#BitstreamVeraSans-Roman-57"/>
      <use x="724.578125" xlink:href="#BitstreamVeraSans-Roman-69"/>
      <use x="752.361328125" xlink:href="#BitstreamVeraSans-Roman-64"/>
      <use x="815.837890625" xlink:href="#BitstreamVeraSans-Roman-74"/>
      <use x="855.046875" xlink:href="#BitstreamVeraSans-Roman-68"/>
      <use x="918.42578125" xlink:href="#BitstreamVeraSans-Roman-20"/>
      <use x="950.212890625" xlink:href="#BitstreamVeraSans-Roman-36"/>
      <use x="1013.8359375" xlink:href="#BitstreamVeraSans-Roman-30"/>
      <use x="1077.45898438" xlink:href="#BitstreamVeraSans-Roman-30"/>
     </g>
    </g>
    <g id="line2d_55">
     <path d="M 211.627813 469.606063 
L 228.427813 469.606063 
" style="fill:none;stroke:#000000;stroke-linecap:round;stroke-width:1.5;"/>
    </g>
    <g id="line2d_56">
     <g>
      <use style="stroke:#000000;stroke-linejoin:miter;stroke-width:0.5;" x="211.6278125" xlink:href="#m96fe63231d" y="469.6060625"/>
      <use style="stroke:#000000;stroke-linejoin:miter;stroke-width:0.5;" x="228.4278125" xlink:href="#m96fe63231d" y="469.6060625"/>
     </g>
    </g>
    <g id="text_24">
     <!-- Target, Width 600 -->
     <g transform="translate(241.6278125 473.8060625)scale(0.12 -0.12)">
      <use xlink:href="#BitstreamVeraSans-Roman-54"/>
      <use x="60.833984375" xlink:href="#BitstreamVeraSans-Roman-61"/>
      <use x="122.11328125" xlink:href="#BitstreamVeraSans-Roman-72"/>
      <use x="163.2109375" xlink:href="#BitstreamVeraSans-Roman-67"/>
      <use x="226.6875" xlink:href="#BitstreamVeraSans-Roman-65"/>
      <use x="288.2109375" xlink:href="#BitstreamVeraSans-Roman-74"/>
      <use x="327.419921875" xlink:href="#BitstreamVeraSans-Roman-2c"/>
      <use x="359.20703125" xlink:href="#BitstreamVeraSans-Roman-20"/>
      <use x="390.994140625" xlink:href="#BitstreamVeraSans-Roman-57"/>
      <use x="489.83984375" xlink:href="#BitstreamVeraSans-Roman-69"/>
      <use x="517.623046875" xlink:href="#BitstreamVeraSans-Roman-64"/>
      <use x="581.099609375" xlink:href="#BitstreamVeraSans-Roman-74"/>
      <use x="620.30859375" xlink:href="#BitstreamVeraSans-Roman-68"/>
      <use x="683.6875" xlink:href="#BitstreamVeraSans-Roman-20"/>
      <use x="715.474609375" xlink:href="#BitstreamVeraSans-Roman-36"/>
      <use x="779.09765625" xlink:href="#BitstreamVeraSans-Roman-30"/>
      <use x="842.720703125" xlink:href="#BitstreamVeraSans-Roman-30"/>
     </g>
    </g>
    <g id="line2d_57">
     <path d="M 406.157188 416.764813 
L 422.957187 416.764813 
" style="fill:none;stroke:#000000;stroke-dasharray:6.000000,6.000000;stroke-dashoffset:0.0;stroke-width:1.5;"/>
    </g>
    <g id="line2d_58">
     <g>
      <use style="stroke:#000000;stroke-linejoin:miter;stroke-width:0.5;" x="406.1571875" xlink:href="#m15c14238ca" y="416.7648125"/>
      <use style="stroke:#000000;stroke-linejoin:miter;stroke-width:0.5;" x="422.9571875" xlink:href="#m15c14238ca" y="416.7648125"/>
     </g>
    </g>
    <g id="text_25">
     <!-- Lagrangian, Exact width -->
     <defs>
      <path d="M 4.203125 54.6875 
L 13.1875 54.6875 
L 24.421875 12.015625 
L 35.59375 54.6875 
L 46.1875 54.6875 
L 57.421875 12.015625 
L 68.609375 54.6875 
L 77.59375 54.6875 
L 63.28125 0 
L 52.6875 0 
L 40.921875 44.828125 
L 29.109375 0 
L 18.5 0 
z
" id="BitstreamVeraSans-Roman-77"/>
      <path d="M 9.8125 72.90625 
L 55.90625 72.90625 
L 55.90625 64.59375 
L 19.671875 64.59375 
L 19.671875 43.015625 
L 54.390625 43.015625 
L 54.390625 34.71875 
L 19.671875 34.71875 
L 19.671875 8.296875 
L 56.78125 8.296875 
L 56.78125 0 
L 9.8125 0 
z
" id="BitstreamVeraSans-Roman-45"/>
      <path d="M 54.890625 54.6875 
L 35.109375 28.078125 
L 55.90625 0 
L 45.3125 0 
L 29.390625 21.484375 
L 13.484375 0 
L 2.875 0 
L 24.125 28.609375 
L 4.6875 54.6875 
L 15.28125 54.6875 
L 29.78125 35.203125 
L 44.28125 54.6875 
z
" id="BitstreamVeraSans-Roman-78"/>
     </defs>
     <g transform="translate(436.1571875 420.9648125)scale(0.12 -0.12)">
      <use xlink:href="#BitstreamVeraSans-Roman-4c"/>
      <use x="55.712890625" xlink:href="#BitstreamVeraSans-Roman-61"/>
      <use x="116.9921875" xlink:href="#BitstreamVeraSans-Roman-67"/>
      <use x="180.46875" xlink:href="#BitstreamVeraSans-Roman-72"/>
      <use x="221.58203125" xlink:href="#BitstreamVeraSans-Roman-61"/>
      <use x="282.861328125" xlink:href="#BitstreamVeraSans-Roman-6e"/>
      <use x="346.240234375" xlink:href="#BitstreamVeraSans-Roman-67"/>
      <use x="409.716796875" xlink:href="#BitstreamVeraSans-Roman-69"/>
      <use x="437.5" xlink:href="#BitstreamVeraSans-Roman-61"/>
      <use x="498.779296875" xlink:href="#BitstreamVeraSans-Roman-6e"/>
      <use x="562.158203125" xlink:href="#BitstreamVeraSans-Roman-2c"/>
      <use x="593.9453125" xlink:href="#BitstreamVeraSans-Roman-20"/>
      <use x="625.732421875" xlink:href="#BitstreamVeraSans-Roman-45"/>
      <use x="688.916015625" xlink:href="#BitstreamVeraSans-Roman-78"/>
      <use x="748.095703125" xlink:href="#BitstreamVeraSans-Roman-61"/>
      <use x="809.375" xlink:href="#BitstreamVeraSans-Roman-63"/>
      <use x="864.35546875" xlink:href="#BitstreamVeraSans-Roman-74"/>
      <use x="903.564453125" xlink:href="#BitstreamVeraSans-Roman-20"/>
      <use x="935.3515625" xlink:href="#BitstreamVeraSans-Roman-77"/>
      <use x="1017.13867188" xlink:href="#BitstreamVeraSans-Roman-69"/>
      <use x="1044.921875" xlink:href="#BitstreamVeraSans-Roman-64"/>
      <use x="1108.3984375" xlink:href="#BitstreamVeraSans-Roman-74"/>
      <use x="1147.60742188" xlink:href="#BitstreamVeraSans-Roman-68"/>
     </g>
    </g>
    <g id="line2d_59">
     <path d="M 406.157188 434.378563 
L 422.957187 434.378563 
" style="fill:none;stroke:#000000;stroke-linecap:round;stroke-width:1.5;"/>
    </g>
    <g id="line2d_60">
     <g>
      <use style="stroke:#000000;stroke-linejoin:miter;stroke-width:0.5;" x="406.1571875" xlink:href="#m15c14238ca" y="434.3785625"/>
      <use style="stroke:#000000;stroke-linejoin:miter;stroke-width:0.5;" x="422.9571875" xlink:href="#m15c14238ca" y="434.3785625"/>
     </g>
    </g>
    <g id="text_26">
     <!-- Target, Exact width -->
     <g transform="translate(436.1571875 438.5785625)scale(0.12 -0.12)">
      <use xlink:href="#BitstreamVeraSans-Roman-54"/>
      <use x="60.833984375" xlink:href="#BitstreamVeraSans-Roman-61"/>
      <use x="122.11328125" xlink:href="#BitstreamVeraSans-Roman-72"/>
      <use x="163.2109375" xlink:href="#BitstreamVeraSans-Roman-67"/>
      <use x="226.6875" xlink:href="#BitstreamVeraSans-Roman-65"/>
      <use x="288.2109375" xlink:href="#BitstreamVeraSans-Roman-74"/>
      <use x="327.419921875" xlink:href="#BitstreamVeraSans-Roman-2c"/>
      <use x="359.20703125" xlink:href="#BitstreamVeraSans-Roman-20"/>
      <use x="390.994140625" xlink:href="#BitstreamVeraSans-Roman-45"/>
      <use x="454.177734375" xlink:href="#BitstreamVeraSans-Roman-78"/>
      <use x="513.357421875" xlink:href="#BitstreamVeraSans-Roman-61"/>
      <use x="574.63671875" xlink:href="#BitstreamVeraSans-Roman-63"/>
      <use x="629.6171875" xlink:href="#BitstreamVeraSans-Roman-74"/>
      <use x="668.826171875" xlink:href="#BitstreamVeraSans-Roman-20"/>
      <use x="700.61328125" xlink:href="#BitstreamVeraSans-Roman-77"/>
      <use x="782.400390625" xlink:href="#BitstreamVeraSans-Roman-69"/>
      <use x="810.18359375" xlink:href="#BitstreamVeraSans-Roman-64"/>
      <use x="873.66015625" xlink:href="#BitstreamVeraSans-Roman-74"/>
      <use x="912.869140625" xlink:href="#BitstreamVeraSans-Roman-68"/>
     </g>
    </g>
    <g id="line2d_61">
     <path d="M 406.157188 451.992313 
L 422.957187 451.992313 
" style="fill:none;stroke:#000000;stroke-dasharray:6.000000,6.000000;stroke-dashoffset:0.0;stroke-width:1.5;"/>
    </g>
    <g id="line2d_62"/>
    <g id="text_27">
     <!-- CPLEX without cuts -->
     <defs>
      <path d="M 19.671875 64.796875 
L 19.671875 37.40625 
L 32.078125 37.40625 
Q 38.96875 37.40625 42.71875 40.96875 
Q 46.484375 44.53125 46.484375 51.125 
Q 46.484375 57.671875 42.71875 61.234375 
Q 38.96875 64.796875 32.078125 64.796875 
z
M 9.8125 72.90625 
L 32.078125 72.90625 
Q 44.34375 72.90625 50.609375 67.359375 
Q 56.890625 61.8125 56.890625 51.125 
Q 56.890625 40.328125 50.609375 34.8125 
Q 44.34375 29.296875 32.078125 29.296875 
L 19.671875 29.296875 
L 19.671875 0 
L 9.8125 0 
z
" id="BitstreamVeraSans-Roman-50"/>
      <path d="M 6.296875 72.90625 
L 16.890625 72.90625 
L 35.015625 45.796875 
L 53.21875 72.90625 
L 63.8125 72.90625 
L 40.375 37.890625 
L 65.375 0 
L 54.78125 0 
L 34.28125 31 
L 13.625 0 
L 2.984375 0 
L 29 38.921875 
z
" id="BitstreamVeraSans-Roman-58"/>
      <path d="M 64.40625 67.28125 
L 64.40625 56.890625 
Q 59.421875 61.53125 53.78125 63.8125 
Q 48.140625 66.109375 41.796875 66.109375 
Q 29.296875 66.109375 22.65625 58.46875 
Q 16.015625 50.828125 16.015625 36.375 
Q 16.015625 21.96875 22.65625 14.328125 
Q 29.296875 6.6875 41.796875 6.6875 
Q 48.140625 6.6875 53.78125 8.984375 
Q 59.421875 11.28125 64.40625 15.921875 
L 64.40625 5.609375 
Q 59.234375 2.09375 53.4375 0.328125 
Q 47.65625 -1.421875 41.21875 -1.421875 
Q 24.65625 -1.421875 15.125 8.703125 
Q 5.609375 18.84375 5.609375 36.375 
Q 5.609375 53.953125 15.125 64.078125 
Q 24.65625 74.21875 41.21875 74.21875 
Q 47.75 74.21875 53.53125 72.484375 
Q 59.328125 70.75 64.40625 67.28125 
" id="BitstreamVeraSans-Roman-43"/>
     </defs>
     <g transform="translate(436.1571875 456.1923125)scale(0.12 -0.12)">
      <use xlink:href="#BitstreamVeraSans-Roman-43"/>
      <use x="69.82421875" xlink:href="#BitstreamVeraSans-Roman-50"/>
      <use x="130.126953125" xlink:href="#BitstreamVeraSans-Roman-4c"/>
      <use x="185.83984375" xlink:href="#BitstreamVeraSans-Roman-45"/>
      <use x="249.0234375" xlink:href="#BitstreamVeraSans-Roman-58"/>
      <use x="317.529296875" xlink:href="#BitstreamVeraSans-Roman-20"/>
      <use x="349.31640625" xlink:href="#BitstreamVeraSans-Roman-77"/>
      <use x="431.103515625" xlink:href="#BitstreamVeraSans-Roman-69"/>
      <use x="458.88671875" xlink:href="#BitstreamVeraSans-Roman-74"/>
      <use x="498.095703125" xlink:href="#BitstreamVeraSans-Roman-68"/>
      <use x="561.474609375" xlink:href="#BitstreamVeraSans-Roman-6f"/>
      <use x="622.65625" xlink:href="#BitstreamVeraSans-Roman-75"/>
      <use x="686.03515625" xlink:href="#BitstreamVeraSans-Roman-74"/>
      <use x="725.244140625" xlink:href="#BitstreamVeraSans-Roman-20"/>
      <use x="757.03125" xlink:href="#BitstreamVeraSans-Roman-63"/>
      <use x="812.01171875" xlink:href="#BitstreamVeraSans-Roman-75"/>
      <use x="875.390625" xlink:href="#BitstreamVeraSans-Roman-74"/>
      <use x="914.599609375" xlink:href="#BitstreamVeraSans-Roman-73"/>
     </g>
    </g>
    <g id="line2d_63">
     <path d="M 406.157188 469.606063 
L 422.957187 469.606063 
" style="fill:none;stroke:#000000;stroke-dasharray:1.000000,3.000000;stroke-dashoffset:0.0;stroke-width:1.5;"/>
    </g>
    <g id="line2d_64"/>
    <g id="text_28">
     <!-- CPLEX with cuts -->
     <g transform="translate(436.1571875 473.8060625)scale(0.12 -0.12)">
      <use xlink:href="#BitstreamVeraSans-Roman-43"/>
      <use x="69.82421875" xlink:href="#BitstreamVeraSans-Roman-50"/>
      <use x="130.126953125" xlink:href="#BitstreamVeraSans-Roman-4c"/>
      <use x="185.83984375" xlink:href="#BitstreamVeraSans-Roman-45"/>
      <use x="249.0234375" xlink:href="#BitstreamVeraSans-Roman-58"/>
      <use x="317.529296875" xlink:href="#BitstreamVeraSans-Roman-20"/>
      <use x="349.31640625" xlink:href="#BitstreamVeraSans-Roman-77"/>
      <use x="431.103515625" xlink:href="#BitstreamVeraSans-Roman-69"/>
      <use x="458.88671875" xlink:href="#BitstreamVeraSans-Roman-74"/>
      <use x="498.095703125" xlink:href="#BitstreamVeraSans-Roman-68"/>
      <use x="561.474609375" xlink:href="#BitstreamVeraSans-Roman-20"/>
      <use x="593.26171875" xlink:href="#BitstreamVeraSans-Roman-63"/>
      <use x="648.2421875" xlink:href="#BitstreamVeraSans-Roman-75"/>
      <use x="711.62109375" xlink:href="#BitstreamVeraSans-Roman-74"/>
      <use x="750.830078125" xlink:href="#BitstreamVeraSans-Roman-73"/>
     </g>
    </g>
   </g>
  </g>
 </g>
 <defs>
  <clipPath id="p9264ad06b4">
   <rect height="345.6" width="446.4" x="74.286875" y="13.9746875"/>
  </clipPath>
 </defs>
</svg>
